<?xml version="1.0" encoding="utf-8"?>
<!-- Generator: Adobe Illustrator 25.4.1, SVG Export Plug-In . SVG Version: 6.00 Build 0)  -->
<svg version="1.1" id="Layer_1" xmlns="http://www.w3.org/2000/svg" xmlns:xlink="http://www.w3.org/1999/xlink" x="0px" y="0px"
	 viewBox="0 0 315 114" style="enable-background:new 0 0 315 114;" xml:space="preserve">
<style type="text/css">
	.st0{fill:#A3CB76;}
	.st1{fill:#76B949;}
	.st2{fill:#0E77BD;}
</style>
<path class="st0" d="M126.1,83.2h0.1H126.1z"/>
<path class="st0" d="M143.3,9.2c-21.5,0-39.1,17.5-39.1,39c0,8.2,2.6,15.9,7,22.1c0.1-0.1,0.2-0.1,0.2-0.1h14.2
	c0.1,0,0.2,0.1,0.3,0.1c0.1,0.1,0.1,0.2,0.1,0.3l-1.1,5.7c0,0.2-0.2,0.3-0.4,0.3h-7.7c2.7,2.5,5.8,4.7,9.3,6.3l0.1-0.4
	c0.8-3.2,3.3-11.3,7.2-17.7c8.2-13.6,17.9-15.6,18-15.6l0.3-0.1v7.9l3.5,2.9c6.3-4.7,14.6-5.4,14.7-5.4h0.4l-3.8,25.1
	c1.2-0.9,2.5-2,3.6-3.1c-0.1-0.6-0.1-1.4-0.1-2.1c0-5.8,3.6-12,10.4-13.9c1.4-4,2-8.1,2-12.5C182.4,26.6,165,9.2,143.3,9.2
	 M140.1,54.1H132l5.1-8.8h10.2L140.1,54.1z M146.4,41.1V30.9l8.8,7.2v8.1L146.4,41.1z M162.4,54.1h-8.1l5.1-8.8h10.2L162.4,54.1z"/>
<path class="st1" d="M123.5,102.7l0.5-6c0.1-1.4,0.2-2.4,0.2-3.2l2.9-0.5v1.5c0.8-1.5,1.9-2.1,3.1-2.3c1.8-0.3,2.6,0.6,2.7,2.1v1.5
	l-0.5,5.3l-3.2,0.6l0.4-4.8v-1c-0.1-0.5-0.2-0.9-0.8-0.8c-0.8,0.2-1.6,1.5-1.8,3.4l-0.3,3.6L123.5,102.7z"/>
<path class="st1" d="M140.6,99.9v-1.7c-0.7,1.6-2,2.1-3,2.2c-1.7,0.2-3-0.9-3.1-3c-0.1-3.1,1.9-6.3,6.8-7c1.2-0.1,2.5,0,3.4,0.1
	l-0.8,4.8c-0.1,1-0.3,2.9-0.2,4.2L140.6,99.9z M141.2,93.1h-0.6c-1.5,0.2-2.5,2-2.5,3.3c0,0.9,0.5,1.2,1,1.2
	c0.6-0.1,1.5-0.7,1.8-3.1L141.2,93.1z"/>
<path class="st1" d="M151.4,87.3l-0.5,2.7l1.9-0.1l-0.5,2.6l-1.9,0.1l-0.4,2.1c-0.1,0.3-0.2,0.8-0.2,1.1s0.1,0.7,0.7,0.6
	c0.2,0,0.5,0,0.7-0.1l-0.4,2.6c-0.3,0.2-1.1,0.3-1.8,0.4c-1.8,0.1-2.6-0.6-2.6-1.8c0-0.5,0-0.9,0.2-1.8l0.6-3l-1.1,0.1l0.5-2.6
	l1.1-0.1l0.3-1.8L151.4,87.3z"/>
<path class="st1" d="M163.5,89.3l-1.4,6c-0.3,1.4-0.5,2.4-0.6,3.2l-2.9,0.1l0.2-1.5c-1.1,1.4-2.3,1.8-3.4,1.9
	c-1.7,0.1-2.4-0.8-2.3-2.5c0-0.5,0.1-1,0.2-1.7l1.1-5.1l3.2-0.1l-1,4.8c-0.1,0.3-0.1,0.7-0.2,1c0,0.4,0.1,0.8,0.7,0.8
	c0.9,0,1.8-1.2,2.2-3.1l0.8-3.6L163.5,89.3z"/>
<path class="st1" d="M174.9,89.2l-1.6,5.9c-0.3,1.2-0.6,2.4-0.7,3.2h-2.9l0.3-1.5c-1.1,1.2-2.3,1.7-3.4,1.8c-1.7,0-2.4-0.9-2.3-2.6
	c0-0.5,0.1-1,0.3-1.7l1.4-5.1h3.2l-1.2,4.8c-0.1,0.3-0.2,0.7-0.2,1c0,0.4,0.1,0.9,0.7,0.8c0.9,0,1.8-1.1,2.3-3.1l0.9-3.6H174.9z"/>
<path class="st1" d="M174.6,98.4l1.4-4.9c0.4-1.6,0.7-3.5,0.8-4.2h2.8c-0.1,0.6-0.2,1.2-0.3,2h0.1c0.7-1.1,2-2.2,3.3-2.1h0.5
	l-0.9,3.2h-0.4c-2.1,0-2.8,1.6-3.3,3.2l-0.8,2.8L174.6,98.4z"/>
<polygon class="st1" points="182.2,98.5 186.3,85.3 189.5,85.4 185.5,98.6 "/>
<path class="st1" d="M187.5,98.6l2.8-9l3.2,0.1l-2.8,9L187.5,98.6z M192.4,88.7c-0.8,0-1.5-0.6-1.4-1.6c0.1-1.1,1.1-1.7,2.1-1.7
	c0.8,0,1.6,0.6,1.4,1.6C194.4,88.2,193.5,88.8,192.4,88.7"/>
<path class="st1" d="M199.5,90.1l-2.8,8.7c-0.5,1.6-1,2.6-1.9,3.2c-0.7,0.6-1.8,0.8-2.6,0.7c-0.4,0-0.9-0.1-1.5-0.2l0.7-2.5
	c0.2,0,0.3,0.1,0.6,0.1c0.5,0,0.9-0.1,1.5-1.6l2.8-8.7L199.5,90.1z M198.3,89c-0.8,0-1.5-0.6-1.4-1.6c0.1-1.1,1.1-1.7,2.1-1.7
	c0.8,0,1.5,0.6,1.4,1.6C200.2,88.5,199.2,89.1,198.3,89"/>
<path class="st1" d="M198.7,99.1l4.5-13.1l3.2,0.2l-2.6,7.7c0.3-0.3,0.6-0.6,1-0.9l2.5-2.5l4.2,0.3l-4.7,3.3l2,5.6l-3.7-0.2l-1-3.7
	l-1.2,0.9l-0.9,2.6L198.7,99.1z"/>
<path class="st2" d="M169.9,54.6c-0.1,0-8.3,0.7-14.7,5.4v8.1l-8.8-5.1V52.8l5.3,4.3v-7.7l-0.3,0.1c-0.1,0-9.7,2-18,15.6
	c-3.8,6.3-6.2,14.5-7.2,17.7l-0.1,0.4l0.5-0.1c11.6-1.9,25-3,39.6-3.4h0.2l3.8-25.1H169.9z"/>
<path class="st2" d="M124.9,76.5l1.1-5.7c0-0.1,0-0.2-0.1-0.3s-0.2-0.1-0.3-0.1h-14.1c-0.2,0-0.3,0.1-0.4,0.3l-1.1,5.7
	c0,0.1,0,0.2,0.1,0.3c0.1,0.1,0.2,0.1,0.3,0.1h14.1C124.7,76.9,124.8,76.8,124.9,76.5"/>
<path class="st2" d="M30.1,72.2c0.2,0,0.3-0.1,0.4-0.3l1.4-7.2c0-0.1,0-0.2-0.1-0.3s-0.2-0.1-0.3-0.1H19l0.8-4.4h13.4
	c0.2,0,0.3-0.1,0.4-0.3l1.4-7.2c0-0.1,0-0.2-0.1-0.3S34.7,52,34.6,52H12.3c-0.2,0-0.3,0.1-0.4,0.3l-5.1,27c0,0.1,0,0.2,0.1,0.3
	c0.1,0.1,0.2,0.1,0.3,0.1c4.6,0.2,12.2,1.1,22,4.7h0.1c0.1,0,0.1,0,0.2-0.1s0.2-0.2,0.2-0.3l1.2-6.6c0-0.1,0-0.2-0.1-0.3
	c-0.1-0.1-0.2-0.1-0.3-0.1h-14l0.9-4.8h12.6V72.2z"/>
<path class="st2" d="M52.5,69c0.2,0,0.3-0.1,0.4-0.3l1.7-8.2c0-0.1,0-0.2-0.1-0.3C54.3,60,54.2,60,54.1,60h-1.5
	c-3.1,0-5.9,1.7-7.9,4.7c0.1-1.2,0.2-2.5,0.2-3.6c0-0.1,0-0.2-0.1-0.3s-0.2-0.1-0.3-0.1h-7.3c-0.2,0-0.4,0.2-0.4,0.3
	c0,0.4-0.1,1-0.2,1.9c-0.2,2.4-0.4,5.9-1,9l-2.4,12.7c0,0.1,0,0.2,0.1,0.3s0.2,0.1,0.3,0.1h8.5c0.2,0,0.3-0.1,0.4-0.3l1.4-7.4
	c0.7-4.1,2-8.3,7.5-8.3H52.5z"/>
<path class="st2" d="M72.8,59.9c-2.8,0-5.3,1-7.2,2.9l0.2-2.2c0-0.1,0-0.2-0.1-0.3c-0.1-0.1-0.2-0.1-0.3-0.1h-7.7
	c-0.2,0-0.4,0.2-0.4,0.3c-0.2,2.3-0.9,7.4-1.5,10.3l-4.2,21.9c0,0.2,0.1,0.4,0.3,0.4c3.2,1.1,6.6,1.2,7.9,1.2h0.5
	c0.2,0,0.3-0.1,0.4-0.3l1.9-9.7c1,0.5,2.7,0.9,4.3,0.9c8.6,0,14.8-6.6,14.8-15.5C81.8,64,78.1,59.9,72.8,59.9 M69.6,67.6
	c1.8,0,2.3,1.6,2.3,2.9c0,4.1-2.5,7.8-5.2,7.8c-1,0-1.9-0.3-2.6-1l0.4-2.9C65.4,70.1,67.2,67.6,69.6,67.6"/>
<path class="st2" d="M98.8,59.9c-10,0-15.3,7.5-15.3,14.7c0,7.1,4.2,11,11.9,11c2.2,0,6.6-0.3,10.1-2.1c0.1-0.1,0.2-0.2,0.2-0.4
	l-0.5-6c0-0.1-0.1-0.2-0.2-0.3c-0.1-0.1-0.2-0.1-0.4,0c-2.1,0.9-4.5,1.5-7.2,1.5c-2,0-3.4-0.4-4.3-1.1c-0.2-0.2-0.4-0.4-0.5-0.7
	c10.8,0.2,16-2.5,16-8.2C108.7,63.1,104.9,59.9,98.8,59.9 M97.9,66.8c1.2,0,1.9,0.6,1.9,1c0,0.9-1,1.5-6.3,1.6
	C93.8,68.3,95.1,66.8,97.9,66.8"/>
<path class="st2" d="M195.1,68.1c0-5-3.8-8.1-9.8-8.1c-10,0-15.3,7.5-15.3,14.7c0,1.8,0.3,3.4,0.8,4.9c0.1,0.1,0.2,0.2,0.4,0.2
	c6.7-0.1,13.5-0.1,20.2,0.1c0.1,0,0.2,0,0.3-0.1c0.1-0.1,0.1-0.2,0.1-0.3l-0.2-2.4c0-0.1-0.1-0.2-0.2-0.3c-0.1-0.1-0.2-0.1-0.4,0
	c-2.1,0.9-4.5,1.5-7.2,1.5c-2,0-3.4-0.4-4.3-1.1c-0.2-0.2-0.4-0.4-0.5-0.7C189.9,76.4,195.1,73.7,195.1,68.1 M184.3,66.8
	c1.2,0,1.9,0.6,1.9,1c0,0.9-1,1.5-6.3,1.6C180.3,68.3,181.5,66.8,184.3,66.8"/>
<path class="st2" d="M216.2,60.1c-0.1-0.1-0.2-0.1-0.3-0.1h-1.5c-3.1,0-5.9,1.7-7.9,4.7c0.1-1.1,0.1-2.4,0.2-3.6
	c0-0.1,0-0.2-0.1-0.3c-0.1-0.1-0.2-0.1-0.3-0.1H199c-0.2,0-0.4,0.2-0.4,0.3c0,0.4-0.1,1.1-0.2,1.9c-0.2,2.4-0.4,5.9-1,9l-1.5,7.7
	c0,0.1,0,0.2,0.1,0.3c0.1,0.1,0.2,0.1,0.3,0.1c2.9,0.1,5.7,0.2,8.4,0.4c0.2,0,0.3-0.1,0.4-0.3l0.5-2.8c0.7-4.1,2-8.3,7.5-8.3h1
	c0.2,0,0.3-0.1,0.4-0.3l1.7-8.2C216.3,60.3,216.2,60.2,216.2,60.1"/>
<path class="st2" d="M241,68.1c0-5-3.8-8.1-9.8-8.1c-10,0-15.3,7.5-15.3,14.7c0,2.7,0.6,4.9,1.8,6.7c0.1,0.1,0.2,0.2,0.3,0.2
	c5.7,0.5,11.2,1.1,16.5,1.8l2.9,0.4c0.1,0,0.3-0.1,0.3-0.1c0.1-0.1,0.2-0.2,0.2-0.4l-0.5-6c0-0.1-0.1-0.2-0.2-0.3
	c-0.1-0.1-0.2-0.1-0.4,0c-2.1,0.9-4.5,1.5-7.2,1.5c-2,0-3.4-0.4-4.3-1.1c-0.2-0.2-0.4-0.4-0.5-0.7C235.8,76.4,241,73.7,241,68.1
	 M230.2,66.8c1.2,0,1.9,0.6,1.9,1c0,0.9-1,1.5-6.3,1.6C226.1,68.3,227.4,66.8,230.2,66.8"/>
<path class="st2" d="M218.7,91.5l-0.2,3.4c-0.1,1-0.1,1.9-0.1,2.6h0.1c0.4-0.6,0.8-1.5,1.6-2.5l2-3.1l3.7,0.4l-6.9,8.5l-3.3-0.3
	l-0.2-9.3L218.7,91.5z"/>
<path class="st2" d="M231.5,101.6c-1.5,0.5-3,0.4-3.8,0.3c-2.7-0.3-4-1.9-3.4-4.6c0.5-2.8,3.2-5.2,6.7-4.8c1.9,0.2,3.3,1.4,2.9,3.4
	c-0.4,2.2-2.6,2.8-6.7,2.3c0,0.2,0.1,0.4,0.2,0.6c0.3,0.4,0.8,0.6,1.6,0.7c0.9,0.1,2,0,2.8-0.3L231.5,101.6z M230.8,95.5
	c0-0.2-0.2-0.6-0.7-0.6c-1.2-0.1-2,0.6-2.1,1C230,96.2,230.7,96,230.8,95.5"/>
<path class="st2" d="M233.1,102.4l2-4.8c0.6-1.6,1.1-3.4,1.4-4.2l2.7,0.3c-0.2,0.6-0.3,1.2-0.5,1.9h0.1c0.8-1.1,2.2-2,3.5-1.8
	c0.2,0,0.3,0,0.5,0.1l-1.2,3.1c-0.1,0-0.2,0-0.4-0.1c-2.1-0.3-2.9,1.2-3.6,2.9l-1.1,2.7L233.1,102.4z"/>
<path class="st2" d="M248.9,90.8l-1.8,4.8c0.7-0.5,1.8-0.8,2.9-0.7c1.9,0.1,2.7,1.7,2.4,3.5c-0.4,2.8-2.9,6-7.4,5.7
	c-2.6-0.2-3.4-1.5-3.1-3.1c0.1-0.6,0.3-1.2,0.5-1.9l3.2-8.6L248.9,90.8z M245.6,99.7c-0.1,0.3-0.2,0.6-0.2,0.9
	c-0.1,0.6,0.3,0.9,0.7,0.9c1.2,0.1,2.5-1.5,2.8-2.9c0.1-0.8-0.2-1.4-0.8-1.5c-0.8-0.1-1.9,0.6-2.4,2.2L245.6,99.7z"/>
<path class="st2" d="M257,104.7c-2.2,0-4.2-1.4-3.8-4.1c0.3-3.1,2.9-5.5,6.4-5.5c2.4,0,4.2,1.6,4,4C263,102.9,260.2,104.8,257,104.7
	 M257.7,102.2c1.4,0,2.2-1.8,2.3-3c0.1-0.8-0.2-1.6-1.1-1.6c-1.6,0-2.2,2-2.3,3C256.5,101.7,256.9,102.2,257.7,102.2"/>
<path class="st2" d="M263.9,104.6l1.2-6c0.3-1.4,0.4-2.4,0.6-3.2l2.9-0.2l-0.2,1.5c0.9-1.4,2.1-1.9,3.3-1.9c1.8-0.1,2.5,0.9,2.4,2.5
	c0,0.4-0.1,1.1-0.2,1.5l-1.1,5.3l-3.2,0.2l1-4.8c0.1-0.3,0.1-0.7,0.1-1c0-0.6-0.1-0.9-0.7-0.9c-0.8,0.1-1.8,1.2-2.2,3.2l-0.7,3.6
	L263.9,104.6z"/>
<path class="st2" d="M286.1,89l-1.1,9.3c-0.2,1.4-0.2,2.9-0.2,4.2l-3.1,0.4v-1.4c-0.7,1.4-1.9,1.9-2.9,2c-1.5,0.2-3.1-0.6-3.2-3.2
	c-0.2-3.1,2-6.1,5.7-6.7c0.3,0,0.7-0.1,1.1,0l0.5-4.2L286.1,89z M282.1,96.4c-0.2-0.1-0.6-0.2-1-0.2c-1.5,0.2-2.3,1.7-2.2,3.1
	c0.1,1.2,0.7,1.5,1.2,1.5c0.6-0.1,1.5-0.7,1.7-2.7L282.1,96.4z"/>
<path class="st2" d="M295.2,99.6c-1.2,0.9-2.8,1.5-3.6,1.7c-2.7,0.6-4.5-0.3-4.9-2.9c-0.4-2.7,1.4-5.8,4.8-6.7
	c1.9-0.4,3.6,0.1,4,2.1c0.3,2.1-1.6,3.5-5.7,4.4c0.1,0.2,0.2,0.3,0.4,0.4c0.4,0.2,1,0.2,1.8,0.1c0.9-0.2,1.9-0.6,2.7-1.2L295.2,99.6
	z M292.4,94.3c0-0.2-0.4-0.4-0.9-0.3c-1.2,0.3-1.7,1.2-1.7,1.7C291.8,95.2,292.5,94.9,292.4,94.3"/>
<path class="st2" d="M297.4,99.6l-0.3-6c-0.1-1.4-0.2-2.4-0.2-3.1l2.8-0.9l0.2,1.5c0.6-1.6,1.7-2.3,2.8-2.7c1.7-0.5,2.7,0.2,3,1.7
	c0.1,0.3,0.2,1.1,0.2,1.5l0.3,5.3l-3.1,1l-0.3-4.8c0-0.3-0.1-0.7-0.1-0.9c-0.1-0.5-0.4-0.8-0.9-0.6c-0.8,0.3-1.4,1.7-1.2,3.6
	l0.2,3.6L297.4,99.6z"/>
</svg>
