<?xml version="1.0" encoding="utf-8"?>
<!-- Generator: Adobe Illustrator 25.4.1, SVG Export Plug-In . SVG Version: 6.00 Build 0)  -->
<svg version="1.1" id="Layer_1" xmlns="http://www.w3.org/2000/svg" xmlns:xlink="http://www.w3.org/1999/xlink" x="0px" y="0px"
	 viewBox="0 0 346 183" style="enable-background:new 0 0 346 183;" xml:space="preserve">
<style type="text/css">
	.st0{fill:#A3CB76;}
	.st1{fill:#76B949;}
	.st2{fill:#0E77BD;}
</style>
<path class="st0" d="M143.1,105.3L143.1,105.3L143.1,105.3z"/>
<path class="st0" d="M160.3,31.3c-21.5,0-39.1,17.5-39.1,39c0,8.2,2.6,15.9,7,22.1c0.1-0.1,0.2-0.1,0.2-0.1h14.2
	c0.1,0,0.2,0.1,0.3,0.1c0.1,0.1,0.1,0.2,0.1,0.3l-1.1,5.7c0,0.2-0.2,0.3-0.4,0.3h-7.7c2.7,2.5,5.8,4.7,9.3,6.3l0.1-0.4
	c0.8-3.2,3.3-11.3,7.2-17.7c8.2-13.6,17.9-15.6,18-15.6l0.3-0.1v7.9l3.5,2.9c6.3-4.7,14.6-5.4,14.7-5.4h0.4l-3.8,25.1
	c1.2-0.9,2.5-2,3.6-3.1c-0.1-0.6-0.1-1.4-0.1-2.1c0-5.8,3.6-12,10.4-13.9c1.4-4,2-8.1,2-12.5C199.4,48.7,182,31.3,160.3,31.3
	 M157.1,76.2H149l5.1-8.8h10.2L157.1,76.2z M163.4,63.2V53l8.8,7.2v8.1L163.4,63.2z M179.4,76.2h-8.1l5.1-8.8h10.2L179.4,76.2z"/>
<path class="st1" d="M140.5,124.8l0.5-6c0.1-1.4,0.2-2.4,0.2-3.2l2.9-0.5v1.5c0.8-1.5,1.9-2.1,3.1-2.3c1.8-0.3,2.6,0.6,2.7,2.1v1.5
	l-0.5,5.3l-3.2,0.6l0.4-4.8v-1c-0.1-0.5-0.2-0.9-0.8-0.8c-0.8,0.2-1.6,1.5-1.8,3.4l-0.3,3.6L140.5,124.8z"/>
<path class="st1" d="M157.6,122v-1.7c-0.7,1.6-2,2.1-3,2.2c-1.7,0.2-3-0.9-3.1-3c-0.1-3.1,1.9-6.3,6.8-7c1.2-0.1,2.5,0,3.4,0.1
	l-0.8,4.8c-0.1,1-0.3,2.9-0.2,4.2L157.6,122z M158.2,115.2h-0.6c-1.5,0.2-2.5,2-2.5,3.3c0,0.9,0.5,1.2,1,1.2
	c0.6-0.1,1.5-0.7,1.8-3.1L158.2,115.2z"/>
<path class="st1" d="M168.4,109.4l-0.5,2.7l1.9-0.1l-0.5,2.6l-1.9,0.1l-0.4,2.1c-0.1,0.3-0.2,0.8-0.2,1.1s0.1,0.7,0.7,0.6
	c0.2,0,0.5,0,0.7-0.1l-0.4,2.6c-0.3,0.2-1.1,0.3-1.8,0.4c-1.8,0.1-2.6-0.6-2.6-1.8c0-0.5,0-0.9,0.2-1.8l0.6-3l-1.1,0.1l0.5-2.6
	l1.1-0.1l0.3-1.8L168.4,109.4z"/>
<path class="st1" d="M180.5,111.4l-1.4,6c-0.3,1.4-0.5,2.4-0.6,3.2l-2.9,0.1l0.2-1.5c-1.1,1.4-2.3,1.8-3.4,1.9
	c-1.7,0.1-2.4-0.8-2.3-2.5c0-0.5,0.1-1,0.2-1.7l1.1-5.1l3.2-0.1l-1,4.8c-0.1,0.3-0.1,0.7-0.2,1c0,0.4,0.1,0.8,0.7,0.8
	c0.9,0,1.8-1.2,2.2-3.1l0.8-3.6L180.5,111.4z"/>
<path class="st1" d="M191.9,111.3l-1.6,5.9c-0.3,1.2-0.6,2.4-0.7,3.2h-2.9l0.3-1.5c-1.1,1.2-2.3,1.7-3.4,1.8c-1.7,0-2.4-0.9-2.3-2.6
	c0-0.5,0.1-1,0.3-1.7l1.4-5.1h3.2l-1.2,4.8c-0.1,0.3-0.2,0.7-0.2,1c0,0.4,0.1,0.9,0.7,0.8c0.9,0,1.8-1.1,2.3-3.1l0.9-3.6
	L191.9,111.3L191.9,111.3z"/>
<path class="st1" d="M191.6,120.5l1.4-4.9c0.4-1.6,0.7-3.5,0.8-4.2h2.8c-0.1,0.6-0.2,1.2-0.3,2h0.1c0.7-1.1,2-2.2,3.3-2.1h0.5
	l-0.9,3.2h-0.4c-2.1,0-2.8,1.6-3.3,3.2l-0.8,2.8H191.6z"/>
<polygon class="st1" points="199.2,120.6 203.3,107.4 206.5,107.5 202.5,120.7 "/>
<path class="st1" d="M204.5,120.7l2.8-9l3.2,0.1l-2.8,9L204.5,120.7z M209.4,110.8c-0.8,0-1.5-0.6-1.4-1.6c0.1-1.1,1.1-1.7,2.1-1.7
	c0.8,0,1.6,0.6,1.4,1.6C211.4,110.3,210.5,110.9,209.4,110.8"/>
<path class="st1" d="M216.5,112.2l-2.8,8.7c-0.5,1.6-1,2.6-1.9,3.2c-0.7,0.6-1.8,0.8-2.6,0.7c-0.4,0-0.9-0.1-1.5-0.2l0.7-2.5
	c0.2,0,0.3,0.1,0.6,0.1c0.5,0,0.9-0.1,1.5-1.6l2.8-8.7L216.5,112.2z M215.3,111.1c-0.8,0-1.5-0.6-1.4-1.6c0.1-1.1,1.1-1.7,2.1-1.7
	c0.8,0,1.5,0.6,1.4,1.6C217.2,110.6,216.2,111.2,215.3,111.1"/>
<path class="st1" d="M215.7,121.2l4.5-13.1l3.2,0.2l-2.6,7.7c0.3-0.3,0.6-0.6,1-0.9l2.5-2.5l4.2,0.3l-4.7,3.3l2,5.6l-3.7-0.2l-1-3.7
	l-1.2,0.9l-0.9,2.6L215.7,121.2z"/>
<path class="st2" d="M186.9,76.7c-0.1,0-8.3,0.7-14.7,5.4v8.1l-8.8-5.1V74.9l5.3,4.3v-7.7l-0.3,0.1c-0.1,0-9.7,2-18,15.6
	c-3.8,6.3-6.2,14.5-7.2,17.7l-0.1,0.4l0.5-0.1c11.6-1.9,25-3,39.6-3.4h0.2l3.8-25.1C187.2,76.7,186.9,76.7,186.9,76.7z"/>
<path class="st2" d="M141.9,98.6l1.1-5.7c0-0.1,0-0.2-0.1-0.3c-0.1-0.1-0.2-0.1-0.3-0.1h-14.1c-0.2,0-0.3,0.1-0.4,0.3l-1.1,5.7
	c0,0.1,0,0.2,0.1,0.3c0.1,0.1,0.2,0.1,0.3,0.1h14.1C141.7,99,141.8,98.9,141.9,98.6"/>
<path class="st2" d="M47.1,94.3c0.2,0,0.3-0.1,0.4-0.3l1.4-7.2c0-0.1,0-0.2-0.1-0.3s-0.2-0.1-0.3-0.1H36l0.8-4.4h13.4
	c0.2,0,0.3-0.1,0.4-0.3l1.4-7.2c0-0.1,0-0.2-0.1-0.3c-0.1-0.1-0.2-0.1-0.3-0.1H29.3c-0.2,0-0.3,0.1-0.4,0.3l-5.1,27
	c0,0.1,0,0.2,0.1,0.3c0.1,0.1,0.2,0.1,0.3,0.1c4.6,0.2,12.2,1.1,22,4.7h0.1c0.1,0,0.1,0,0.2-0.1c0.1-0.1,0.2-0.2,0.2-0.3l1.2-6.6
	c0-0.1,0-0.2-0.1-0.3c-0.1-0.1-0.2-0.1-0.3-0.1h-14l0.9-4.8H47.1L47.1,94.3L47.1,94.3z"/>
<path class="st2" d="M69.5,91.1c0.2,0,0.3-0.1,0.4-0.3l1.7-8.2c0-0.1,0-0.2-0.1-0.3c-0.2-0.2-0.3-0.2-0.4-0.2h-1.5
	c-3.1,0-5.9,1.7-7.9,4.7c0.1-1.2,0.2-2.5,0.2-3.6c0-0.1,0-0.2-0.1-0.3c-0.1-0.1-0.2-0.1-0.3-0.1h-7.3c-0.2,0-0.4,0.2-0.4,0.3
	c0,0.4-0.1,1-0.2,1.9c-0.2,2.4-0.4,5.9-1,9l-2.4,12.7c0,0.1,0,0.2,0.1,0.3s0.2,0.1,0.3,0.1h8.5c0.2,0,0.3-0.1,0.4-0.3l1.4-7.4
	c0.7-4.1,2-8.3,7.5-8.3C68.4,91.1,69.5,91.1,69.5,91.1z"/>
<path class="st2" d="M89.8,82c-2.8,0-5.3,1-7.2,2.9l0.2-2.2c0-0.1,0-0.2-0.1-0.3s-0.2-0.1-0.3-0.1h-7.7c-0.2,0-0.4,0.2-0.4,0.3
	c-0.2,2.3-0.9,7.4-1.5,10.3l-4.2,21.9c0,0.2,0.1,0.4,0.3,0.4c3.2,1.1,6.6,1.2,7.9,1.2h0.5c0.2,0,0.3-0.1,0.4-0.3l1.9-9.7
	c1,0.5,2.7,0.9,4.3,0.9c8.6,0,14.8-6.6,14.8-15.5C98.8,86.1,95.1,82,89.8,82 M86.6,89.7c1.8,0,2.3,1.6,2.3,2.9
	c0,4.1-2.5,7.8-5.2,7.8c-1,0-1.9-0.3-2.6-1l0.4-2.9C82.4,92.2,84.2,89.7,86.6,89.7"/>
<path class="st2" d="M115.8,82c-10,0-15.3,7.5-15.3,14.7c0,7.1,4.2,11,11.9,11c2.2,0,6.6-0.3,10.1-2.1c0.1-0.1,0.2-0.2,0.2-0.4
	l-0.5-6c0-0.1-0.1-0.2-0.2-0.3c-0.1-0.1-0.2-0.1-0.4,0c-2.1,0.9-4.5,1.5-7.2,1.5c-2,0-3.4-0.4-4.3-1.1c-0.2-0.2-0.4-0.4-0.5-0.7
	c10.8,0.2,16-2.5,16-8.2C125.7,85.2,121.9,82,115.8,82 M114.9,88.9c1.2,0,1.9,0.6,1.9,1c0,0.9-1,1.5-6.3,1.6
	C110.8,90.4,112.1,88.9,114.9,88.9"/>
<path class="st2" d="M212.1,90.2c0-5-3.8-8.1-9.8-8.1c-10,0-15.3,7.5-15.3,14.7c0,1.8,0.3,3.4,0.8,4.9c0.1,0.1,0.2,0.2,0.4,0.2
	c6.7-0.1,13.5-0.1,20.2,0.1c0.1,0,0.2,0,0.3-0.1s0.1-0.2,0.1-0.3l-0.2-2.4c0-0.1-0.1-0.2-0.2-0.3c-0.1-0.1-0.2-0.1-0.4,0
	c-2.1,0.9-4.5,1.5-7.2,1.5c-2,0-3.4-0.4-4.3-1.1c-0.2-0.2-0.4-0.4-0.5-0.7C206.9,98.5,212.1,95.8,212.1,90.2 M201.3,88.9
	c1.2,0,1.9,0.6,1.9,1c0,0.9-1,1.5-6.3,1.6C197.3,90.4,198.5,88.9,201.3,88.9"/>
<path class="st2" d="M233.2,82.2c-0.1-0.1-0.2-0.1-0.3-0.1h-1.5c-3.1,0-5.9,1.7-7.9,4.7c0.1-1.1,0.1-2.4,0.2-3.6
	c0-0.1,0-0.2-0.1-0.3c-0.1-0.1-0.2-0.1-0.3-0.1H216c-0.2,0-0.4,0.2-0.4,0.3c0,0.4-0.1,1.1-0.2,1.9c-0.2,2.4-0.4,5.9-1,9l-1.5,7.7
	c0,0.1,0,0.2,0.1,0.3c0.1,0.1,0.2,0.1,0.3,0.1c2.9,0.1,5.7,0.2,8.4,0.4c0.2,0,0.3-0.1,0.4-0.3l0.5-2.8c0.7-4.1,2-8.3,7.5-8.3h1
	c0.2,0,0.3-0.1,0.4-0.3l1.7-8.2C233.3,82.4,233.2,82.3,233.2,82.2"/>
<path class="st2" d="M258,90.2c0-5-3.8-8.1-9.8-8.1c-10,0-15.3,7.5-15.3,14.7c0,2.7,0.6,4.9,1.8,6.7c0.1,0.1,0.2,0.2,0.3,0.2
	c5.7,0.5,11.2,1.1,16.5,1.8l2.9,0.4c0.1,0,0.3-0.1,0.3-0.1c0.1-0.1,0.2-0.2,0.2-0.4l-0.5-6c0-0.1-0.1-0.2-0.2-0.3
	c-0.1-0.1-0.2-0.1-0.4,0c-2.1,0.9-4.5,1.5-7.2,1.5c-2,0-3.4-0.4-4.3-1.1c-0.2-0.2-0.4-0.4-0.5-0.7C252.8,98.5,258,95.8,258,90.2
	 M247.2,88.9c1.2,0,1.9,0.6,1.9,1c0,0.9-1,1.5-6.3,1.6C243.1,90.4,244.4,88.9,247.2,88.9"/>
<path class="st2" d="M235.7,113.6l-0.2,3.4c-0.1,1-0.1,1.9-0.1,2.6h0.1c0.4-0.6,0.8-1.5,1.6-2.5l2-3.1l3.7,0.4l-6.9,8.5l-3.3-0.3
	l-0.2-9.3L235.7,113.6z"/>
<path class="st2" d="M248.5,123.7c-1.5,0.5-3,0.4-3.8,0.3c-2.7-0.3-4-1.9-3.4-4.6c0.5-2.8,3.2-5.2,6.7-4.8c1.9,0.2,3.3,1.4,2.9,3.4
	c-0.4,2.2-2.6,2.8-6.7,2.3c0,0.2,0.1,0.4,0.2,0.6c0.3,0.4,0.8,0.6,1.6,0.7c0.9,0.1,2,0,2.8-0.3L248.5,123.7z M247.8,117.6
	c0-0.2-0.2-0.6-0.7-0.6c-1.2-0.1-2,0.6-2.1,1C247,118.3,247.7,118.1,247.8,117.6"/>
<path class="st2" d="M250.1,124.5l2-4.8c0.6-1.6,1.1-3.4,1.4-4.2l2.7,0.3c-0.2,0.6-0.3,1.2-0.5,1.9h0.1c0.8-1.1,2.2-2,3.5-1.8
	c0.2,0,0.3,0,0.5,0.1l-1.2,3.1c-0.1,0-0.2,0-0.4-0.1c-2.1-0.3-2.9,1.2-3.6,2.9l-1.1,2.7L250.1,124.5z"/>
<path class="st2" d="M265.9,112.9l-1.8,4.8c0.7-0.5,1.8-0.8,2.9-0.7c1.9,0.1,2.7,1.7,2.4,3.5c-0.4,2.8-2.9,6-7.4,5.7
	c-2.6-0.2-3.4-1.5-3.1-3.1c0.1-0.6,0.3-1.2,0.5-1.9l3.2-8.6L265.9,112.9z M262.6,121.8c-0.1,0.3-0.2,0.6-0.2,0.9
	c-0.1,0.6,0.3,0.9,0.7,0.9c1.2,0.1,2.5-1.5,2.8-2.9c0.1-0.8-0.2-1.4-0.8-1.5c-0.8-0.1-1.9,0.6-2.4,2.2L262.6,121.8z"/>
<path class="st2" d="M274,126.8c-2.2,0-4.2-1.4-3.8-4.1c0.3-3.1,2.9-5.5,6.4-5.5c2.4,0,4.2,1.6,4,4C280,125,277.2,126.9,274,126.8
	 M274.7,124.3c1.4,0,2.2-1.8,2.3-3c0.1-0.8-0.2-1.6-1.1-1.6c-1.6,0-2.2,2-2.3,3C273.5,123.8,273.9,124.3,274.7,124.3"/>
<path class="st2" d="M280.9,126.7l1.2-6c0.3-1.4,0.4-2.4,0.6-3.2l2.9-0.2l-0.2,1.5c0.9-1.4,2.1-1.9,3.3-1.9c1.8-0.1,2.5,0.9,2.4,2.5
	c0,0.4-0.1,1.1-0.2,1.5l-1.1,5.3l-3.2,0.2l1-4.8c0.1-0.3,0.1-0.7,0.1-1c0-0.6-0.1-0.9-0.7-0.9c-0.8,0.1-1.8,1.2-2.2,3.2l-0.7,3.6
	L280.9,126.7z"/>
<path class="st2" d="M303.1,111.1l-1.1,9.3c-0.2,1.4-0.2,2.9-0.2,4.2l-3.1,0.4v-1.4c-0.7,1.4-1.9,1.9-2.9,2
	c-1.5,0.2-3.1-0.6-3.2-3.2c-0.2-3.1,2-6.1,5.7-6.7c0.3,0,0.7-0.1,1.1,0l0.5-4.2L303.1,111.1z M299.1,118.5c-0.2-0.1-0.6-0.2-1-0.2
	c-1.5,0.2-2.3,1.7-2.2,3.1c0.1,1.2,0.7,1.5,1.2,1.5c0.6-0.1,1.5-0.7,1.7-2.7L299.1,118.5z"/>
<path class="st2" d="M312.2,121.7c-1.2,0.9-2.8,1.5-3.6,1.7c-2.7,0.6-4.5-0.3-4.9-2.9c-0.4-2.7,1.4-5.8,4.8-6.7
	c1.9-0.4,3.6,0.1,4,2.1c0.3,2.1-1.6,3.5-5.7,4.4c0.1,0.2,0.2,0.3,0.4,0.4c0.4,0.2,1,0.2,1.8,0.1c0.9-0.2,1.9-0.6,2.7-1.2
	L312.2,121.7z M309.4,116.4c0-0.2-0.4-0.4-0.9-0.3c-1.2,0.3-1.7,1.2-1.7,1.7C308.8,117.3,309.5,117,309.4,116.4"/>
<path class="st2" d="M314.4,121.7l-0.3-6c-0.1-1.4-0.2-2.4-0.2-3.1l2.8-0.9l0.2,1.5c0.6-1.6,1.7-2.3,2.8-2.7c1.7-0.5,2.7,0.2,3,1.7
	c0.1,0.3,0.2,1.1,0.2,1.5l0.3,5.3l-3.1,1l-0.3-4.8c0-0.3-0.1-0.7-0.1-0.9c-0.1-0.5-0.4-0.8-0.9-0.6c-0.8,0.3-1.4,1.7-1.2,3.6
	l0.2,3.6L314.4,121.7z"/>
</svg>
