<?xml version="1.0" encoding="utf-8"?>
<!-- Generator: Adobe Illustrator 25.4.1, SVG Export Plug-In . SVG Version: 6.00 Build 0)  -->
<svg version="1.1" id="Layer_1" xmlns="http://www.w3.org/2000/svg" xmlns:xlink="http://www.w3.org/1999/xlink" x="0px" y="0px"
	 viewBox="0 0 595.3 265" style="enable-background:new 0 0 595.3 265;" xml:space="preserve">
<style type="text/css">
	.st0{fill:#414142;}
</style>
<g>
	<path class="st0" d="M321.1,132.8c-1.1-4.6-1.1-8,0-12.6c1.1-3.4,3.4-5.7,5.7-8c17.2-16,37.8-30.9,58.4-42.4
		c19.5-10.3,42.4-17.2,64.1-17.2c19.5-1.1,40.1,3.4,58.4,11.4c27.5,11.4,51.5,28.6,73.3,48.1c2.3,2.3,3.4,4.6,4.6,6.9
		c2.3,5.7,2.3,13.7-2.3,19.5c-2.3,2.3-4.6,4.6-6.9,6.9c-13.7,12.6-28.6,24-44.6,33.2c-16,9.2-32.1,16-49.2,19.5
		c-11.4,2.3-24,3.4-35.5,3.4c-20.6-1.1-41.2-6.9-59.5-17.2c-18.3-9.2-36.6-21.7-52.7-35.5C336,148.8,322.2,137.4,321.1,132.8
		 M441.3,61.8c-17.2,2.3-34.3,8-50.4,14.9c-21.7,10.3-41.2,25.2-58.4,41.2c-2.3,2.3-3.4,4.6-3.4,6.9s1.1,5.7,2.3,6.9
		c9.2,9.2,19.5,17.2,29.8,25.2c16,11.4,34.3,20.6,52.7,27.5c18.3,5.7,37.8,8,56.1,4.6c20.6-3.4,38.9-11.4,57.2-21.7
		c17.2-10.3,32.1-21.7,46.9-35.5c3.4-2.3,3.4-6.9,2.3-11.4c-1.1-2.3-3.4-4.6-5.7-5.7c-19.5-18.3-42.4-34.3-67.5-44.6
		C484.8,64.1,463,59.5,441.3,61.8"/>
	<path class="st0" d="M447,69.8c11.4-1.1,22.9,1.1,33.2,5.7c14.9,8,26.3,21.7,29.8,38.9c2.3,11.4,1.1,24-3.4,34.3
		c-5.7,14.9-18.3,26.3-33.2,32.1c-11.4,4.6-24,4.6-35.5,1.1c-16-4.6-29.8-16-36.6-29.8c-6.9-12.6-8-28.6-3.4-42.4
		c3.4-9.2,8-18.3,16-25.2C424.1,76.7,435.5,71,447,69.8 M449.3,79c-13.7,1.1-27.5,9.2-35.5,20.6c-6.9,10.3-10.3,24-6.9,36.6
		c2.3,9.2,6.9,18.3,13.7,25.2c5.7,5.7,13.7,10.3,22.9,12.6c10.3,2.3,22.9,1.1,32.1-3.4c13.7-6.9,24-20.6,26.3-35.5
		c1.1-10.3-1.1-21.7-5.7-32.1c-4.6-6.9-10.3-12.6-17.2-17.2C468.7,80.2,458.4,77.9,449.3,79"/>
	<path class="st0" d="M450.4,105.3c8-1.1,17.2,2.3,21.7,9.2c4.6,5.7,4.6,14.9,1.1,21.7c-3.4,6.9-11.4,12.6-19.5,12.6
		c-6.9,0-13.7-3.4-18.3-9.2c-3.4-4.6-4.6-11.4-3.4-17.2C434.4,113.3,441.3,106.5,450.4,105.3"/>
	<path class="st0" d="M235.2,28.6c1.1-2.3,4.6-2.3,6.9,0c2.3,1.1,2.3,5.7,0,6.9c-11.4,11.4-21.7,21.7-33.2,33.2
		c4.6,2.3,9.2,4.6,13.7,6.9c16,9.2,32.1,20.6,45.8,34.3c2.3,1.1,3.4,3.4,5.7,5.7c3.4,4.6,4.6,11.4,3.4,17.2c-1.1,4.6-4.6,8-8,10.3
		c-12.6,12.6-27.5,22.9-42.4,32.1c-16,9.2-33.2,17.2-51.5,21.7c-11.4,2.3-22.9,4.6-35.5,3.4c-17.2-1.1-34.3-5.7-50.4-11.4
		c-11.4,11.4-24,24-35.5,35.5c-1.1,2.3-4.6,2.3-6.9,1.1c-2.3-1.1-2.3-5.7,0-6.9c11.4-11.4,21.7-21.7,33.2-33.2
		c-21.7-10.3-40.1-24-58.4-40.1c-2.3-2.3-4.6-4.6-6.9-6.9c-3.4-5.7-4.6-13.7-1.1-19.5c1.1-2.3,3.4-4.6,5.7-6.9
		c16-14.9,33.2-28.6,52.7-38.9c17.2-9.2,35.5-16,54.9-19.5c25.2-3.4,50.4,1.1,73.3,10.3c5.7-4.6,10.3-10.3,14.9-14.9
		C221.5,42.4,228.4,35.5,235.2,28.6 M111.6,66.4C95.6,71,79.6,77.9,64.7,87c-13.7,8-26.3,18.3-37.8,28.6c-2.3,2.3-4.6,3.4-4.6,5.7
		c-2.3,3.4-1.1,8,2.3,11.4c18.3,17.2,40.1,33.2,63,43.5c4.6-4.6,9.2-9.2,13.7-13.7c-5.7-6.9-9.2-14.9-11.4-22.9
		c-3.4-12.6-2.3-27.5,4.6-38.9c5.7-10.3,13.7-19.5,24-25.2s21.7-8,34.3-6.9c11.4,1.1,21.7,5.7,29.8,12.6c3.4-3.4,8-8,11.4-11.4
		c-11.4-4.6-24-8-36.6-9.2C141.4,60.7,125.3,63,111.6,66.4 M187.2,89.3c8,9.2,12.6,20.6,13.7,32.1c1.1,18.3-5.7,36.6-19.5,48.1
		s-32.1,16-49.2,12.6c-9.2-2.3-17.2-5.7-25.2-12.6c-3.4,3.4-8,8-11.4,11.4c12.6,4.6,25.2,8,38.9,9.2c11.4,1.1,22.9,0,34.3-2.3
		c17.2-3.4,33.2-10.3,49.2-19.5c17.2-10.3,32.1-21.7,46.9-35.5c4.6-3.4,3.4-10.3,0-13.7c-18.3-17.2-40.1-33.2-63-43.5
		C197.5,80.2,192.9,84.7,187.2,89.3 M121.9,84.7c-9.2,4.6-16,12.6-20.6,21.7c-4.6,10.3-5.7,21.7-3.4,32.1c2.3,6.9,4.6,12.6,9.2,18.3
		c5.7-5.7,12.6-12.6,18.3-18.3c-4.6-6.9-4.6-14.9-1.1-21.7c3.4-5.7,8-10.3,14.9-11.4c5.7-1.1,11.4,0,16,3.4
		c5.7-5.7,12.6-12.6,18.3-18.3c-5.7-4.6-12.6-8-19.5-10.3C143.7,76.7,131.1,79,121.9,84.7 M180.3,97.3c-5.7,5.7-11.4,11.4-18.3,18.3
		c4.6,6.9,4.6,16,0,22.9c-3.4,5.7-10.3,10.3-17.2,10.3c-4.6,0-8-1.1-12.6-3.4c-6.9,5.7-12.6,12.6-18.3,18.3c5.7,4.6,11.4,8,18.3,9.2
		c8,2.3,17.2,2.3,26.3-1.1c16-4.6,28.6-18.3,32.1-34.3c2.3-10.3,2.3-20.6-2.3-30.9C186,103,183.7,99.6,180.3,97.3
		C180.3,96.2,180.3,97.3,180.3,97.3"/>
</g>
</svg>
