<?xml version="1.0" encoding="utf-8"?>
<!-- Generator: Adobe Illustrator 25.4.1, SVG Export Plug-In . SVG Version: 6.00 Build 0)  -->
<svg version="1.1" id="Layer_1" xmlns="http://www.w3.org/2000/svg" xmlns:xlink="http://www.w3.org/1999/xlink" x="0px" y="0px"
	 viewBox="0 0 28.2 35.4" style="enable-background:new 0 0 28.2 35.4;" xml:space="preserve">
<style type="text/css">
	.st0{fill:#FCB721;}
</style>
<g>
	<path class="st0" d="M10.7,20.6c0,0.5-0.4,1.1-1.1,1.1c-0.5,0-1.1-0.4-1.1-1.1c0-0.5,0.4-1.1,1.1-1.1
		C10.3,19.7,10.7,20.1,10.7,20.6 M27.1,17.3v9.6c0,0.8-0.7,1.6-1.6,1.6h-2.3v0.9c0,0.8-0.7,1.5-1.5,1.5H10.5c-0.8,0-1.5-0.7-1.5-1.5
		v-0.9H6.6c-0.8,0-1.6-0.7-1.6-1.6v-9.6c0-0.8,0.7-1.6,1.6-1.6h2.3v-5.3c0-0.8,0.7-1.5,1.5-1.5h11.3c0.8,0,1.5,0.7,1.5,1.5v5.3h2.3
		C26.5,15.8,27.1,16.5,27.1,17.3 M21.8,10.2h-2.1V12c0,0.3,0.3,0.5,0.5,0.5h1.9v-2C22.1,10.4,21.9,10.2,21.8,10.2 M10.2,15.8h11.9
		v-2.5h-1.9c-0.7,0-1.3-0.5-1.3-1.3v-1.7h-8.4c-0.1,0-0.3,0.1-0.3,0.3V15.8z M22.1,25H10.2v4.4c0,0.1,0.1,0.3,0.3,0.3h11.3
		c0.1,0,0.3-0.1,0.3-0.3V25z M25.9,17.3c0-0.1-0.1-0.3-0.3-0.3H6.7c-0.1,0-0.3,0.1-0.3,0.3v9.6c0,0.1,0.1,0.3,0.3,0.3H9v-2.8
		c0-0.4,0.3-0.7,0.5-0.7h13.1c0.4,0,0.7,0.3,0.7,0.7v2.8h2.3c0.1,0,0.3-0.1,0.3-0.3v-9.6H25.9z"/>
</g>
</svg>
