<?xml version="1.0" encoding="utf-8"?>
<!-- Generator: Adobe Illustrator 25.4.1, SVG Export Plug-In . SVG Version: 6.00 Build 0)  -->
<svg version="1.1" id="Layer_1" xmlns="http://www.w3.org/2000/svg" xmlns:xlink="http://www.w3.org/1999/xlink" x="0px" y="0px"
	 viewBox="0 0 18.7 35.4" style="enable-background:new 0 0 18.7 35.4;" xml:space="preserve">
<style type="text/css">
	.st0{fill:#939599;}
</style>
<path class="st0" d="M4.3,14.7c0,0.4-0.3,0.8-0.8,0.8c-0.4,0-0.8-0.3-0.8-0.8c0-0.4,0.3-0.8,0.8-0.8C4,14,4.3,14.3,4.3,14.7
	 M16.6,12.2v7.2c0,0.6-0.5,1.2-1.2,1.2h-1.7v0.7c0,0.6-0.5,1.1-1.1,1.1H4.1c-0.6,0-1.1-0.5-1.1-1.1v-0.7H1.2c-0.6,0-1.2-0.5-1.2-1.2
	v-7.2c0-0.6,0.5-1.2,1.2-1.2h1.7v-4c0-0.6,0.5-1.1,1.1-1.1h8.5c0.6,0,1.1,0.5,1.1,1.1v4h1.7C16.1,11.1,16.6,11.6,16.6,12.2
	 M12.6,6.9H11v1.3c0,0.2,0.2,0.4,0.4,0.4h1.4V7.1C12.8,7,12.7,6.9,12.6,6.9 M3.9,11.1h8.9V9.2h-1.4c-0.5,0-1-0.4-1-1V6.9H4.1
	C4,6.9,3.9,7,3.9,7.1V11.1z M12.8,18H3.9v3.3c0,0.1,0.1,0.2,0.2,0.2h8.5c0.1,0,0.2-0.1,0.2-0.2V18z M15.7,12.2
	c0-0.1-0.1-0.2-0.2-0.2H1.3c-0.1,0-0.2,0.1-0.2,0.2v7.2c0,0.1,0.1,0.2,0.2,0.2H3v-2.1C3,17.2,3.2,17,3.4,17h9.8
	c0.3,0,0.5,0.2,0.5,0.5v2.1h1.7c0.1,0,0.2-0.1,0.2-0.2V12.2z"/>
</svg>
