<?xml version="1.0" encoding="utf-8"?>
<!-- Generator: Adobe Illustrator 25.4.1, SVG Export Plug-In . SVG Version: 6.00 Build 0)  -->
<svg version="1.1" id="Layer_1" xmlns="http://www.w3.org/2000/svg" xmlns:xlink="http://www.w3.org/1999/xlink" x="0px" y="0px"
	 viewBox="0 0 37 44" style="enable-background:new 0 0 37 44;" xml:space="preserve">
<style type="text/css">
	.st0{fill:#FCB721;}
</style>
<path class="st0" d="M25.8,34.6H11.2c-0.7,0-1.3-0.6-1.3-1.3V10.5c0-0.7,0.6-1.3,1.3-1.3h14.7c0.7,0,1.3,0.6,1.3,1.3v22.7
	C27.2,34,26.6,34.6,25.8,34.6 M11.3,33.1h14.4V10.7H11.3V33.1z M23.1,25.5h-9.3c-0.7,0-1.3-0.6-1.3-1.3V13.2c0-0.7,0.6-1.3,1.3-1.3
	h9.2c0.7,0,1.3,0.6,1.3,1.3v10.9C24.5,24.9,23.8,25.5,23.1,25.5 M14,24h9V13.4h-9V24z M18.5,31.9c-1.4,0-2.6-1.2-2.6-2.6
	c0-1.4,1.2-2.6,2.6-2.6c1.4,0,2.6,1.2,2.6,2.6C21.1,30.8,19.9,31.9,18.5,31.9 M18.5,28.2c-0.6,0-1.1,0.5-1.1,1.1
	c0,0.6,0.5,1.1,1.1,1.1c0.6,0,1.1-0.5,1.1-1.1C19.6,28.7,19.1,28.2,18.5,28.2"/>
</svg>
