<?xml version="1.0" encoding="utf-8"?>
<!-- Generator: Adobe Illustrator 25.4.1, SVG Export Plug-In . SVG Version: 6.00 Build 0)  -->
<svg version="1.1" id="Layer_1" xmlns="http://www.w3.org/2000/svg" xmlns:xlink="http://www.w3.org/1999/xlink" x="0px" y="0px"
	 viewBox="0 0 6.3 13.2" style="enable-background:new 0 0 6.3 13.2;" xml:space="preserve">
<style type="text/css">
	.st0{fill:#1E1400;}
</style>
<path class="st0" d="M4.4,11L4.4,11V7.3c0-0.4-0.3-0.7-0.7-0.7H1.6c-0.4,0-0.7,0.3-0.7,0.7v0.9c0,0.4,0.3,0.7,0.7,0.7h0.1V11H1.6
	c-0.4,0-0.7,0.3-0.7,0.7v0.9c0,0.4,0.3,0.7,0.7,0.7h2.8c0.4,0,0.7-0.3,0.7-0.7v-0.9C5.1,11.3,4.8,11,4.4,11 M4.5,12.6
	C4.5,12.6,4.4,12.6,4.5,12.6l-2.9,0.1c0,0-0.1,0-0.1-0.1v-0.9c0,0,0-0.1,0.1-0.1H2c0.2,0,0.3-0.1,0.3-0.3V8.6c0-0.2-0.1-0.3-0.3-0.3
	H1.6c0,0-0.1,0-0.1-0.1V7.3c0,0,0-0.1,0.1-0.1h2.1c0,0,0.1,0,0.1,0.1v4c0,0.2,0.1,0.3,0.3,0.3h0.4c0,0,0.1,0,0.1,0.1L4.5,12.6
	L4.5,12.6z"/>
<path class="st0" d="M3,6c0.9,0,1.7-0.7,1.7-1.7C4.7,3.4,4,2.6,3,2.6c-0.9,0-1.7,0.7-1.7,1.7C1.3,5.2,2.1,6,3,6 M3,3.3
	c0.6,0,1,0.5,1,1c0,0.6-0.5,1-1,1c-0.6,0-1-0.5-1-1S2.4,3.3,3,3.3"/>
</svg>
