<?xml version="1.0" encoding="utf-8"?>
<!-- Generator: Adobe Illustrator 25.4.1, SVG Export Plug-In . SVG Version: 6.00 Build 0)  -->
<svg version="1.1" id="Layer_1" xmlns="http://www.w3.org/2000/svg" xmlns:xlink="http://www.w3.org/1999/xlink" x="0px" y="0px"
	 viewBox="0 0 6.3 13.2" style="enable-background:new 0 0 6.3 13.2;" xml:space="preserve">
<style type="text/css">
	.st0{fill:#FAB627;}
</style>
<path class="st0" d="M4.4,9.5L4.4,9.5L4.4,5.8c0-0.4-0.3-0.7-0.7-0.7H1.6c-0.4,0-0.7,0.3-0.7,0.7v0.9c0,0.4,0.3,0.7,0.7,0.7h0.1v2.1
	H1.6c-0.4,0-0.7,0.3-0.7,0.7v0.9c0,0.4,0.3,0.7,0.7,0.7h2.8c0.4,0,0.7-0.3,0.7-0.7v-0.9C5.1,9.8,4.8,9.5,4.4,9.5 M4.5,11.1
	C4.5,11.1,4.4,11.1,4.5,11.1l-2.9,0.1c0,0-0.1,0-0.1-0.1v-0.9c0,0,0-0.1,0.1-0.1h0.4c0.2,0,0.3-0.1,0.3-0.3V7.1
	c0-0.2-0.1-0.3-0.3-0.3H1.6c0,0-0.1,0-0.1-0.1V5.8c0,0,0-0.1,0.1-0.1h2.1c0,0,0.1,0,0.1,0.1v4c0,0.2,0.1,0.3,0.3,0.3h0.4
	c0,0,0.1,0,0.1,0.1V11.1z"/>
<path class="st0" d="M3,4.5c0.9,0,1.7-0.7,1.7-1.7c0-0.9-0.7-1.7-1.7-1.7c-0.9,0-1.7,0.7-1.7,1.7C1.3,3.7,2.1,4.5,3,4.5 M3,1.8
	c0.6,0,1,0.5,1,1c0,0.6-0.5,1-1,1c-0.6,0-1-0.5-1-1C2,2.3,2.4,1.8,3,1.8"/>
</svg>
