<?xml version="1.0" encoding="utf-8"?>
<!-- Generator: Adobe Illustrator 25.4.1, SVG Export Plug-In . SVG Version: 6.00 Build 0)  -->
<svg version="1.1" id="Layer_1" xmlns="http://www.w3.org/2000/svg" xmlns:xlink="http://www.w3.org/1999/xlink" x="0px" y="0px"
	 viewBox="0 0 84.8 130.3" style="enable-background:new 0 0 84.8 130.3;" xml:space="preserve">
<style type="text/css">
	.st0{fill:#F4BC22;}
	.st1{fill:#D2D3D5;}
	.st2{fill:#58595B;}
	.st3{fill:#C7C8CA;}
	.st4{fill:#595A5B;}
	.st5{fill:#F3BB23;}
</style>
<path class="st0" d="M43.4,83.4c-0.3,0-0.6-0.2-0.6-0.6V52c0-0.3,0.2-0.6,0.6-0.6c0.3,0,0.6,0.2,0.6,0.6v30.8
	C44,83.1,43.7,83.4,43.4,83.4"/>
<path class="st0" d="M43.4,44.3c-2.7,0-4.9-2.2-4.9-4.9c0-2.7,2.2-4.9,4.9-4.9c2.7,0,4.9,2.2,4.9,4.9C48.3,42.1,46.1,44.3,43.4,44.3
	 M43.4,35.7c-2.1,0-3.8,1.7-3.8,3.8c0,2.1,1.7,3.8,3.8,3.8c2.1,0,3.8-1.7,3.8-3.8C47.2,37.4,45.5,35.7,43.4,35.7"/>
<path class="st0" d="M47.7,79.6c-0.3,0-0.6-0.2-0.6-0.6V51.9c0-2.1-1.7-3.8-3.8-3.8s-3.8,1.7-3.8,3.8V79c0,0.3-0.2,0.6-0.6,0.6
	c-0.3,0-0.6-0.2-0.6-0.6V51.9c0-2.7,2.2-4.9,4.9-4.9c2.7,0,4.9,2.2,4.9,4.9V79C48.3,79.4,48,79.6,47.7,79.6"/>
<path class="st1" d="M43.4,89.1c-5.2,0-9.5-4.2-9.5-9.5V39c0-5.2,4.2-9.5,9.5-9.5c5.2,0,9.5,4.2,9.5,9.5v40.6
	C52.9,84.8,48.6,89.1,43.4,89.1 M43.4,30.6c-4.6,0-8.4,3.8-8.4,8.4v40.6c0,4.6,3.8,8.4,8.4,8.4c4.6,0,8.4-3.8,8.4-8.4V39
	C51.8,34.4,48,30.6,43.4,30.6"/>
<path class="st1" d="M56.9,45.7c-0.3,0-0.6-0.2-0.6-0.6v-7c0-7.1-5.8-13-13-13c-2.1,0-4,0.5-5.8,1.4c-0.3,0.1-0.6,0-0.7-0.2
	c-0.1-0.3,0-0.6,0.2-0.7c2-1,4.1-1.5,6.3-1.5c7.8,0,14.1,6.3,14.1,14.1v7C57.5,45.5,57.2,45.7,56.9,45.7"/>
<path class="st1" d="M43.4,94.5c-7.8,0-14.1-6.3-14.1-14.1V38.1c0-2.2,0.5-4.4,1.6-6.4c0.1-0.3,0.5-0.4,0.7-0.2s0.4,0.5,0.2,0.7
	c-1,1.8-1.4,3.8-1.4,5.9v42.3c0,7.1,5.8,13,13,13c5.6,0,10.5-3.6,12.3-8.9c0.1-0.3,0.4-0.4,0.7-0.3c0.3,0.1,0.4,0.4,0.3,0.7
	C54.8,90.6,49.5,94.5,43.4,94.5"/>
<path class="st1" d="M66.8,91c-0.1,0-0.2,0-0.3-0.1c-6.4-4.1-10.2-11.1-10.2-18.6V53.3c0-0.3,0.2-0.6,0.6-0.6s0.6,0.2,0.6,0.6v19.1
	c0,7.2,3.6,13.8,9.7,17.7c0.3,0.2,0.3,0.5,0.2,0.8C67.2,91,67,91,66.8,91"/>
<path class="st2" d="M69.7,99.7H44.5c-0.3,0-0.6-0.2-0.6-0.6c0-0.3,0.2-0.6,0.6-0.6h25.2c0.3,0,0.6,0.2,0.6,0.6
	C70.2,99.4,70,99.7,69.7,99.7"/>
<path class="st2" d="M69.7,94.5H54.4c-0.3,0-0.6-0.2-0.6-0.6c0-0.3,0.2-0.6,0.6-0.6h15.3c0.3,0,0.6,0.2,0.6,0.6
	C70.2,94.2,70,94.5,69.7,94.5"/>
<path class="st2" d="M37.1,98.5c-0.1,0-0.1,0-0.2,0c-3.2-1.2-6-3.2-8.2-5.9c-2.7-3.4-4.2-7.6-4.2-11.9V68.6c0-0.3,0.2-0.6,0.6-0.6
	c0.3,0,0.6,0.2,0.6,0.6v12.1c0,4,1.4,8,4,11.2c2,2.5,4.7,4.4,7.7,5.6c0.3,0.1,0.4,0.4,0.3,0.7C37.5,98.4,37.3,98.5,37.1,98.5"/>
<path class="st2" d="M70,85.1c-4.8-3.4-7.7-8.8-7.7-14.6V46.9c0,0,0-0.1,0-0.1v-9c0-10.4-8.5-18.9-18.9-18.9
	c-10.4,0-18.9,8.5-18.9,18.9v22c0,0.3,0.2,0.6,0.6,0.6c0.3,0,0.6-0.2,0.6-0.6v-22c0-9.8,8-17.8,17.8-17.8s17.8,8,17.8,17.8v23.6
	c0,0,0,0.1,0,0.1v9c0,6.2,3,12,8.1,15.5c0.1,0.1,0.2,0.1,0.3,0.1c0.2,0,0.3-0.1,0.5-0.2C70.3,85.6,70.3,85.3,70,85.1"/>
<path class="st2" d="M43.4,104.9c-13.2,0-23.9-10.7-23.9-23.9V37.6c0-8.6,4.7-16.6,12.2-20.8c0.3-0.1,0.6-0.1,0.8,0.2
	c0.1,0.3,0.1,0.6-0.2,0.8c-7.2,4.1-11.7,11.7-11.7,19.9V81c0,12.6,10.2,22.8,22.8,22.8c0.3,0,0.6,0.2,0.6,0.6S43.7,104.9,43.4,104.9
	"/>
<path class="st2" d="M26.8,104.8c-0.1,0-0.2,0-0.3-0.1c-4.4-3.2-7.8-7.5-9.8-12.5c-0.1-0.3,0-0.6,0.3-0.7c0.3-0.1,0.6,0,0.7,0.3
	c2,4.8,5.2,8.9,9.4,12c0.2,0.2,0.3,0.5,0.1,0.8C27.1,104.8,27,104.8,26.8,104.8"/>
<path class="st2" d="M17.2,27.1c-0.1,0-0.1,0-0.2,0c-0.3-0.1-0.4-0.4-0.3-0.7c0.6-1.3,1.2-2.7,2-3.9c0.8-1.3,1.7-2.6,2.7-3.8
	c0.2-0.2,0.5-0.3,0.8-0.1c0.2,0.2,0.3,0.5,0.1,0.8c-1,1.1-1.8,2.4-2.6,3.6c-0.7,1.2-1.4,2.5-1.9,3.8C17.6,26.9,17.4,27.1,17.2,27.1"
	/>
<path class="st2" d="M69.7,27.2c-0.2,0-0.4-0.1-0.5-0.3c-1.4-3.5-3.5-6.6-6.1-9.2c-0.2-0.2-0.2-0.6,0-0.8c0.2-0.2,0.6-0.2,0.8,0
	c2.8,2.8,4.9,6,6.4,9.6c0.1,0.3,0,0.6-0.3,0.7C69.8,27.2,69.8,27.2,69.7,27.2"/>
<path class="st2" d="M70.1,78.4c-1.9-2.3-2.9-5.2-2.9-8.2v-8.7c0-0.1,0-0.1,0-0.2V37.6c0-8.6-4.7-16.6-12.2-20.8
	c-0.3-0.1-0.6-0.1-0.8,0.2c-0.1,0.3-0.1,0.6,0.2,0.8c7.2,4.1,11.7,11.7,11.7,19.9v22c0,0.1,0,0.1,0,0.2v10.5c0,3.2,1.1,6.3,3.1,8.8
	c0.1,0.1,0.3,0.2,0.4,0.2c0.1,0,0.2,0,0.3-0.1C70.3,79,70.3,78.7,70.1,78.4"/>
<path class="st2" d="M65.6,104.9H21.3c-2.6,0-4.7-2.1-4.7-4.7V21.3c0-2.6,2.1-4.7,4.7-4.7h44.3c2.6,0,4.7,2.1,4.7,4.7v78.9
	C70.3,102.8,68.2,104.9,65.6,104.9 M21.3,17.8c-2,0-3.6,1.6-3.6,3.6v78.9c0,2,1.6,3.6,3.6,3.6h44.3c2,0,3.6-1.6,3.6-3.6V21.3
	c0-2-1.6-3.6-3.6-3.6H21.3z"/>
<path class="st3" d="M20.8,108.7c1.1,0,1.6,0.8,1.6,1.8v3.7c0,1.1-0.5,1.8-1.6,1.8h-1.6v-7.4H20.8z M20.8,115.7
	c0.8,0,1.2-0.6,1.2-1.4v-3.8c0-0.8-0.4-1.4-1.2-1.4h-1.1v6.5L20.8,115.7L20.8,115.7z"/>
<polygon class="st3" points="25.8,112.2 25.8,112.6 23.7,112.6 23.7,115.7 26.2,115.7 26.2,116.2 23.2,116.2 23.2,108.7 26.2,108.7 
	26.2,109.2 23.7,109.2 23.7,112.2 25.8,112.2 "/>
<polygon class="st3" points="27.4,116.2 27,116.2 27,108.7 27.6,108.7 29.8,115 29.8,108.7 30.3,108.7 30.3,116.2 29.7,116.2 
	27.4,109.5 "/>
<polygon class="st3" points="32.4,116.2 32.4,109.2 30.9,109.2 30.9,108.7 34.4,108.7 34.4,109.2 32.9,109.2 32.9,116.2 "/>
<rect x="35" y="108.7" class="st3" width="0.5" height="7.4"/>
<polygon class="st3" points="37.6,116.2 37.6,109.2 36.1,109.2 36.1,108.7 39.6,108.7 39.6,109.2 38.1,109.2 38.1,116.2 "/>
<polygon class="st3" points="41.7,113.3 40,108.7 40.6,108.7 42,112.6 43.4,108.7 43.9,108.7 42.2,113.3 42.2,116.2 41.7,116.2 
	41.7,113.3 "/>
<path class="st4" d="M46.2,108.7c1.1,0,1.5,0.6,1.5,1.6v0.4c0,0.8-0.2,1.3-1,1.5c0.8,0.2,1.1,0.8,1.1,1.6v0.6c0,1.1-0.5,1.7-1.6,1.7
	h-1.6v-7.4L46.2,108.7L46.2,108.7z M45.9,112c0.9,0,1.3-0.2,1.3-1.2v-0.5c0-0.8-0.2-1.2-1-1.2h-1.1v2.8H45.9z M46.2,115.7
	c0.8,0,1.1-0.5,1.1-1.3v-0.7c0-1-0.4-1.3-1.3-1.3h-0.9v3.3L46.2,115.7L46.2,115.7z"/>
<path class="st4" d="M49.1,114.4c0,0.8,0.3,1.4,1.1,1.4s1.1-0.6,1.1-1.4v-5.6h0.5v5.6c0,1.1-0.4,1.9-1.6,1.9c-1.1,0-1.6-0.8-1.6-1.9
	v-5.6h0.5V114.4z"/>
<rect x="52.6" y="108.7" class="st4" width="0.5" height="7.4"/>
<polygon class="st4" points="53.9,116.2 53.9,108.7 54.4,108.7 54.4,115.7 56.8,115.7 56.8,116.2 53.9,116.2 "/>
<path class="st4" d="M59.1,108.7c1.1,0,1.6,0.8,1.6,1.8v3.7c0,1.1-0.5,1.8-1.6,1.8h-1.6v-7.4H59.1z M59.1,115.7
	c0.8,0,1.2-0.6,1.2-1.4v-3.8c0-0.8-0.4-1.4-1.2-1.4H58v6.5L59.1,115.7L59.1,115.7z"/>
<rect x="61.6" y="108.7" class="st4" width="0.5" height="7.4"/>
<polygon class="st4" points="63.4,116.2 62.9,116.2 62.9,108.7 63.6,108.7 65.8,115 65.8,108.7 66.2,108.7 66.2,116.2 65.7,116.2 
	63.4,109.5 63.4,116.2 "/>
<path class="st4" d="M70.2,110.5v0.6h-0.5v-0.6c0-0.8-0.3-1.4-1.1-1.4c-0.8,0-1.1,0.6-1.1,1.4v3.9c0,0.8,0.3,1.4,1.1,1.4
	c0.8,0,1.1-0.6,1.1-1.4v-1.6h-1v-0.4h1.5v2c0,1.1-0.5,1.9-1.6,1.9c-1.1,0-1.6-0.8-1.6-1.9v-3.8c0-1.1,0.5-1.9,1.6-1.9
	C69.8,108.7,70.2,109.5,70.2,110.5"/>
<path class="st5" d="M17.4,116.7c-0.1,0-0.1-0.1-0.1-0.1v-5c0-0.1,0.1-0.1,0.1-0.1c0.1,0,0.1,0.1,0.1,0.1v5
	C17.6,116.7,17.5,116.7,17.4,116.7"/>
<path class="st5" d="M17.4,110.4c-0.5,0-0.8-0.4-0.8-0.8c0-0.5,0.4-0.8,0.8-0.8c0.5,0,0.8,0.4,0.8,0.8
	C18.3,110,17.9,110.4,17.4,110.4 M17.4,109c-0.3,0-0.6,0.3-0.6,0.6c0,0.3,0.3,0.6,0.6,0.6c0.3,0,0.6-0.3,0.6-0.6
	C18,109.3,17.8,109,17.4,109"/>
<path class="st5" d="M18.1,116.1c-0.1,0-0.1-0.1-0.1-0.1v-4.4c0-0.3-0.3-0.6-0.6-0.6c-0.3,0-0.6,0.3-0.6,0.6v4.4
	c0,0.1-0.1,0.1-0.1,0.1c-0.1,0-0.1-0.1-0.1-0.1v-4.4c0-0.5,0.4-0.8,0.8-0.8c0.5,0,0.8,0.4,0.8,0.8v4.4
	C18.3,116.1,18.2,116.1,18.1,116.1"/>
</svg>
