<?xml version="1.0" encoding="utf-8"?>
<!-- Generator: Adobe Illustrator 25.4.1, SVG Export Plug-In . SVG Version: 6.00 Build 0)  -->
<svg version="1.1" id="Layer_1" xmlns="http://www.w3.org/2000/svg" xmlns:xlink="http://www.w3.org/1999/xlink" x="0px" y="0px"
	 viewBox="0 0 44.1 44" style="enable-background:new 0 0 44.1 44;" xml:space="preserve">
<style type="text/css">
	.st0{fill:#FCB721;}
</style>
<path class="st0" d="M37.1,12H9.8c0,0,0,0-0.1,0H9.6H9.5H9.5H9.4H9.3c0,0-0.1,0-0.1,0.1c0,0-0.1,0-0.1,0.1l-0.1,0.1l0,0l0,0
	c0,0,0,0.1-0.1,0.1v0.1v0.1v0.1v0.1v0.1l0,0v16.4C9,29.6,9.4,30,9.8,30h27.3c0.5,0,0.8-0.4,0.8-0.8V12.8C37.9,12.4,37.5,12,37.1,12
	 M35,13.7l-11.3,8.9l-11.4-8.9H35z M10.6,28.4V14.6l12.5,9.7c0.3,0.2,0.8,0.2,1.1,0l12-9.4v13.5L10.6,28.4L10.6,28.4z"/>
</svg>
