<?xml version="1.0" encoding="utf-8"?>
<!-- Generator: Adobe Illustrator 25.4.1, SVG Export Plug-In . SVG Version: 6.00 Build 0)  -->
<svg version="1.1" id="Layer_1" xmlns="http://www.w3.org/2000/svg" xmlns:xlink="http://www.w3.org/1999/xlink" x="0px" y="0px"
	 viewBox="0 0 44.1 44" style="enable-background:new 0 0 44.1 44;" xml:space="preserve">
<style type="text/css">
	.st0{fill:#FCB721;}
</style>
<path class="st0" d="M42.9,10H7c0,0,0,0-0.1,0H6.8H6.7H6.6H6.5H6.4c0,0-0.1,0-0.1,0.1c0,0-0.1,0-0.1,0.1l-0.1,0.1l0,0l0,0
	c0,0,0,0.1-0.1,0.1v0.1v0.1v0.1v0.1v0.1l0,0v21.6c0,0.6,0.5,1.1,1.1,1.1H43c0.6,0,1.1-0.5,1.1-1.1V11.1C44,10.5,43.5,10,42.9,10
	 M40.2,12.2L25.3,23.9l-15-11.7H40.2z M8.1,31.6V13.4l16.4,12.8c0.4,0.3,1,0.3,1.4,0l15.8-12.4v17.7L8.1,31.6L8.1,31.6z"/>
</svg>
