<?xml version="1.0" encoding="utf-8"?>
<!-- Generator: Adobe Illustrator 25.4.1, SVG Export Plug-In . SVG Version: 6.00 Build 0)  -->
<svg version="1.1" id="Layer_1" xmlns="http://www.w3.org/2000/svg" xmlns:xlink="http://www.w3.org/1999/xlink" x="0px" y="0px"
	 viewBox="0 0 37 44" style="enable-background:new 0 0 37 44;" xml:space="preserve">
<style type="text/css">
	.st0{fill:#FAB627;}
</style>
<path class="st0" d="M28.4,10c0.2,0.2,0.2,0.6,0,0.7c-1.1,1-2.6,1.1-2.6,1.1h0c-0.3,0-0.5-0.2-0.5-0.5c0-0.3,0.2-0.5,0.5-0.6
	c0,0,1.2-0.1,2-0.9C27.9,9.8,28.2,9.8,28.4,10 M30.5,27v4.7c0,0.5-0.4,0.9-0.9,0.9s-0.9-0.4-0.9-0.9V27c0-2.1-1.9-2.6-2.2-2.7
	l-3.9-0.6c-0.1,0.2-0.4,0.5-0.6,0.7c0,0.1,0.1,0.1,0.1,0.2c0.3,0.5,0.2,1.2-0.1,1.9c0,0.1-0.1,0.2-0.2,0.2l1.4,7.5
	c0,0.2-0.1,0.5-0.2,0.7l-2.1,1.8c-0.1,0.1-0.3,0.1-0.4,0.1s-0.3,0-0.4-0.1l-2.2-1.8c-0.2-0.1-0.3-0.4-0.2-0.7l1.4-7.6
	c-0.1-0.1-0.1-0.2-0.2-0.2c-0.4-0.7-0.4-1.4-0.1-1.9c0-0.1,0.1-0.1,0.1-0.2c-0.2-0.2-0.4-0.4-0.6-0.7l-3.8,0.6
	c-0.3,0.1-2.2,0.7-2.2,2.7v4.7c0,0.5-0.4,0.9-0.9,0.9s-0.9-0.4-0.9-0.9V27c0-2.9,2.4-4.2,3.6-4.5h0.1l3.8-0.6v-0.4
	c-2-0.9-3.5-3-3.5-5.4v-2.2c-0.1-0.6-0.5-2.6,0.7-4.3c1-1.4,2.7-2.2,5.2-2.3c1.5-0.1,2.6,0.5,3.4,1c1,0.6,1.6,0.9,3.1,0.1
	c0.4-0.2,0.9-0.1,1.2,0.4c0.2,0.4,0.1,0.9-0.4,1.2c-2.3,1.2-3.6,0.5-4.7-0.2C22.2,9.3,21.6,9,20.6,9c-1.9,0.1-3.2,0.6-3.9,1.5
	c-0.9,1.2-0.4,2.9-0.4,2.9c0,0.1,0,0.2,0,0.2V16c0,2.3,1.9,4.2,4.2,4.2c2.3,0,4.2-1.9,4.2-4.2v-1.9c-0.7-0.5-3-1.7-6.6-0.8
	c-0.5,0.1-0.9-0.2-1.1-0.6c-0.1-0.5,0.2-0.9,0.6-1.1c5.4-1.3,8.4,1.4,8.5,1.5c0.2,0.2,0.3,0.4,0.3,0.6V16c0,2.4-1.4,4.5-3.5,5.4v0.5
	l3.8,0.6h0.1C28.1,22.8,30.5,24.1,30.5,27 M20.5,22c-0.2,0-0.5,0-0.7,0v0.4v0.1c0,0,0,0.1,0,0.1v0.1c0.1,0.3,0.4,0.5,0.7,0.5
	c0.4,0,0.7-0.3,0.7-0.7V22C21,22,20.7,22,20.5,22 M20.9,27.3c-0.1,0-0.3,0.1-0.5,0.1c-0.2,0-0.3,0-0.5-0.1l-1.3,6.8l1.8,1.5l1.8-1.5
	L20.9,27.3z M21,24.8c-0.2,0-0.4,0.1-0.6,0.1c-0.2,0-0.4,0-0.6-0.1c-0.1,0-0.2,0.1-0.2,0.2c-0.1,0.2-0.1,0.5,0.1,0.8
	c0.2,0.4,0.4,0.5,0.7,0.5c0.2,0,0.5-0.2,0.7-0.5c0.2-0.4,0.2-0.6,0.1-0.8C21.2,24.9,21.2,24.9,21,24.8 M25.4,27.6
	c-0.3,0-0.5,0.2-0.5,0.5v3.5c0,0.3,0.2,0.5,0.5,0.5s0.5-0.2,0.5-0.5v-3.5C26,27.9,25.7,27.6,25.4,27.6 M15.6,27.6
	c-0.3,0-0.5,0.2-0.5,0.5v3.5c0,0.3,0.2,0.5,0.5,0.5c0.3,0,0.5-0.2,0.5-0.5v-3.5C16.1,27.9,15.9,27.6,15.6,27.6"/>
</svg>
