<?xml version="1.0" encoding="utf-8"?>
<!-- Generator: Adobe Illustrator 25.4.1, SVG Export Plug-In . SVG Version: 6.00 Build 0)  -->
<svg version="1.1" id="Layer_1" xmlns="http://www.w3.org/2000/svg" xmlns:xlink="http://www.w3.org/1999/xlink" x="0px" y="0px"
	 viewBox="0 0 18.7 35.4" style="enable-background:new 0 0 18.7 35.4;" xml:space="preserve">
<style type="text/css">
	.st0{fill:#939599;}
</style>
<path class="st0" d="M2.9,20.7c-0.5,0-0.9-0.3-1-0.8l-0.6-2.7c-0.1-0.5,0.1-1,0.6-1.2l2.9-1.3c0.4-0.2,0.9-0.1,1.2,0.3l1.1,1.3
	c1.7-0.9,3.1-2.3,4-4l-1.3-1.1c-0.4-0.3-0.5-0.8-0.3-1.2l1.3-2.9C11,6.7,11.5,6.4,12,6.5l2.7,0.6c0.5,0.1,0.8,0.5,0.8,1
	C15.5,15.1,9.9,20.7,2.9,20.7 M5.2,15.5C5.2,15.5,5.2,15.5,5.2,15.5l-3,1.3c-0.1,0-0.2,0.1-0.1,0.2l0.6,2.7c0,0.1,0.1,0.2,0.2,0.2
	c6.5,0,11.7-5.3,11.7-11.7c0-0.1-0.1-0.2-0.2-0.2l-2.7-0.6c-0.1,0-0.2,0-0.2,0.1l-1.3,2.9c0,0.1,0,0.2,0.1,0.3l1.6,1.3
	c0.2,0.1,0.2,0.3,0.1,0.5c-1,2.1-2.7,3.8-4.8,4.8c-0.2,0.1-0.4,0-0.5-0.1l-1.3-1.6C5.4,15.5,5.3,15.5,5.2,15.5"/>
</svg>
