<?xml version="1.0" encoding="utf-8"?>
<!-- Generator: Adobe Illustrator 25.4.1, SVG Export Plug-In . SVG Version: 6.00 Build 0)  -->
<svg version="1.1" id="Layer_1" xmlns="http://www.w3.org/2000/svg" xmlns:xlink="http://www.w3.org/1999/xlink" x="0px" y="0px"
	 viewBox="0 0 513 601" style="enable-background:new 0 0 513 601;" xml:space="preserve">
<style type="text/css">
	.st0{fill:#FFFFFF;}
	.st1{fill:#F5F5F5;}
	.st2{opacity:0.4;}
	.st3{clip-path:url(#SVGID_00000048501135769986021970000010334294480469232010_);fill:#D9D9D9;}
	
		.st4{clip-path:url(#SVGID_00000172414474428305719630000017139159664000468630_);fill:url(#SVGID_00000108303122306594760900000013729032056009354885_);}
	.st5{fill:#D9D9D9;}
	.st6{opacity:0.3;}
	.st7{clip-path:url(#SVGID_00000147932033307470838800000010339189764093492633_);fill:#FECE54;}
	.st8{clip-path:url(#SVGID_00000074433390425313113330000015515435861305862828_);fill:#FECE54;}
	.st9{opacity:0.21;}
	.st10{clip-path:url(#SVGID_00000000199030481165528070000008834749817913938586_);fill:#F2931D;}
	.st11{clip-path:url(#SVGID_00000120529108934483338110000000445987660808047497_);fill:#F2931D;}
	
		.st12{clip-path:url(#SVGID_00000170967591392984988120000003062460730217145742_);fill:url(#SVGID_00000120529634012686496640000016971510912992977828_);}
	
		.st13{clip-path:url(#SVGID_00000153678062884934757610000007378263096340796809_);fill:url(#SVGID_00000031906348145229121470000002182437547634512319_);}
	.st14{clip-path:url(#SVGID_00000025445018676123611970000012811215198937894311_);fill:#F5F5F5;}
	.st15{opacity:0.8;}
	.st16{clip-path:url(#SVGID_00000097464348887175886070000000341764629898727831_);fill:#D9D9D9;}
	.st17{fill:#EEECEC;}
	
		.st18{clip-path:url(#SVGID_00000065071673682138752380000010430583720039985584_);fill:url(#SVGID_00000091702744540887980840000004040174550387113906_);}
	
		.st19{clip-path:url(#SVGID_00000023247285993160888330000001654388581155920526_);fill:url(#SVGID_00000018211242539234855970000006767043210723679890_);}
	.st20{fill:#FBF5C7;}
	.st21{opacity:0.65;}
	.st22{clip-path:url(#SVGID_00000008851814291395623380000018124361555549207191_);fill:#D9D9D9;}
	.st23{opacity:0.52;}
	.st24{clip-path:url(#SVGID_00000129172440050524616710000000608989257193840056_);fill:#D9D9D9;}
	
		.st25{clip-path:url(#SVGID_00000074422006768853715110000000461554269869867923_);fill:url(#SVGID_00000039095964965809984570000015012612107019462786_);}
	
		.st26{clip-path:url(#SVGID_00000040541079919694699400000016824779542166987654_);fill:url(#SVGID_00000033337436414066170140000017195184127109392786_);}
	.st27{fill:#F2931D;}
	
		.st28{clip-path:url(#SVGID_00000159428926405838150730000003756050469311477172_);fill:url(#SVGID_00000003106397590939501550000010745613195521336748_);}
	.st29{opacity:0.9;}
	.st30{clip-path:url(#SVGID_00000158004962793478461110000014673130930028779931_);fill:#ECECEC;}
	
		.st31{clip-path:url(#SVGID_00000183246782549563238940000000744663117831068825_);fill:url(#SVGID_00000031173250811819188330000016469561217775836340_);}
	.st32{clip-path:url(#SVGID_00000119811459580302769180000008118942761313712817_);fill:#D9D9D9;}
	
		.st33{clip-path:url(#SVGID_00000054259802048274346550000018036835543835096228_);fill:url(#SVGID_00000125594742647224556710000001633997069167593646_);}
	
		.st34{clip-path:url(#SVGID_00000145776051468690529010000002324983993577499788_);fill:url(#SVGID_00000173848430980464030500000018037932310682029978_);}
	.st35{clip-path:url(#SVGID_00000179635154840617112970000016363917587197277103_);fill:#D9D9D9;}
	.st36{fill:#ECECEC;}
	
		.st37{clip-path:url(#SVGID_00000003105291701786751190000011566602411558145927_);fill:url(#SVGID_00000072257473146420671940000009988389883055559847_);}
	.st38{clip-path:url(#SVGID_00000181805349064615470940000012423780118148818616_);}
	.st39{clip-path:url(#SVGID_00000101791694570847775860000013876850997830633644_);fill:#E7C275;}
	.st40{opacity:0.45;}
	.st41{clip-path:url(#SVGID_00000132793894519325888510000007103828921397621380_);fill:#D9D9D9;}
</style>
<ellipse class="st0" cx="268.1" cy="50.8" rx="23.7" ry="7.6"/>
<g>
	<path class="st1" d="M116.4,323.3h-105c0,0,20.6,54.9,105.1,50.2L116.4,323.3L116.4,323.3z"/>
	<g class="st2">
		<g>
			<g>
				<defs>
					<rect id="SVGID_1_" x="11.3" y="323.3" width="105.1" height="35.9"/>
				</defs>
				<clipPath id="SVGID_00000090264236429635036310000014592240495722913166_">
					<use xlink:href="#SVGID_1_"  style="overflow:visible;"/>
				</clipPath>
				<path style="clip-path:url(#SVGID_00000090264236429635036310000014592240495722913166_);fill:#D9D9D9;" d="M116.4,359.2
					c0,0-67.7-0.2-105.1-35.9h105.1V359.2z"/>
			</g>
		</g>
	</g>
	<g>
		<g>
			<defs>
				<path id="SVGID_00000174586681863730431810000014473121632193758356_" d="M100.9,373.8C57.3,369.3,23,341.3,23,341.3
					C53.5,375.8,100.9,373.8,100.9,373.8"/>
			</defs>
			<clipPath id="SVGID_00000081614637558654693980000005233824963634290098_">
				<use xlink:href="#SVGID_00000174586681863730431810000014473121632193758356_"  style="overflow:visible;"/>
			</clipPath>
			
				<linearGradient id="SVGID_00000135649207867550915940000005848831446437470629_" gradientUnits="userSpaceOnUse" x1="-765.3789" y1="-231.5223" x2="-764.049" y2="-231.5223" gradientTransform="matrix(-58.4971 0 0 58.4971 -44671.6484 13901.9854)">
				<stop  offset="0" style="stop-color:#F8AA2A"/>
				<stop  offset="9.061772e-02" style="stop-color:#FBBA3C"/>
				<stop  offset="0.1921" style="stop-color:#FDC649"/>
				<stop  offset="0.3128" style="stop-color:#FECC51"/>
				<stop  offset="0.5" style="stop-color:#FECE53"/>
				<stop  offset="0.7532" style="stop-color:#FECD51"/>
				<stop  offset="0.8448" style="stop-color:#FDC74A"/>
				<stop  offset="0.9101" style="stop-color:#FBBE3F"/>
				<stop  offset="0.9626" style="stop-color:#F9B12E"/>
				<stop  offset="1" style="stop-color:#F6A31C"/>
			</linearGradient>
			
				<rect x="23" y="341.3" style="clip-path:url(#SVGID_00000081614637558654693980000005233824963634290098_);fill:url(#SVGID_00000135649207867550915940000005848831446437470629_);" width="77.8" height="34.6"/>
		</g>
	</g>
	<path class="st5" d="M116.4,323.3c0,0,4,30.1,0,50.2V323.3z"/>
	<g class="st6">
		<g>
			<g>
				<defs>
					<rect id="SVGID_00000112590646307267862380000017563816985875951023_" x="278" y="493.6" width="42.1" height="88.4"/>
				</defs>
				<clipPath id="SVGID_00000179623135835175829000000004622497836410787460_">
					<use xlink:href="#SVGID_00000112590646307267862380000017563816985875951023_"  style="overflow:visible;"/>
				</clipPath>
				<path style="clip-path:url(#SVGID_00000179623135835175829000000004622497836410787460_);fill:#FECE54;" d="M300.1,493.6
					c0,0,17.5,10.4,20,35.2c0,0-4.9-8.6-7.1-9.1c0,0,14.4,29.1-27.5,62.3l-7.5-83.1L300.1,493.6z"/>
			</g>
		</g>
	</g>
	<g class="st6">
		<g>
			<g>
				<defs>
					<rect id="SVGID_00000183246925546041058210000003464238226351971992_" x="241.6" y="497.6" width="43.9" height="84.4"/>
				</defs>
				<clipPath id="SVGID_00000176039829988132767070000014249199063022452113_">
					<use xlink:href="#SVGID_00000183246925546041058210000003464238226351971992_"  style="overflow:visible;"/>
				</clipPath>
				<path style="clip-path:url(#SVGID_00000176039829988132767070000014249199063022452113_);fill:#FECE54;" d="M255.2,497.6
					c0,0-15.4,13.3-13.4,38.2c0,0,3.3-9.4,5.3-10.2c0,0-8.8,31.2,38.4,56.3l-7.7-83.1L255.2,497.6z"/>
			</g>
		</g>
	</g>
	<g class="st9">
		<g>
			<g>
				<defs>
					<rect id="SVGID_00000010279981963931764130000016295168700729175182_" x="277.7" y="492.6" width="27.2" height="57.2"/>
				</defs>
				<clipPath id="SVGID_00000145778887913971498600000007470818049104607650_">
					<use xlink:href="#SVGID_00000010279981963931764130000016295168700729175182_"  style="overflow:visible;"/>
				</clipPath>
				<path style="clip-path:url(#SVGID_00000145778887913971498600000007470818049104607650_);fill:#F2931D;" d="M292,492.6
					c0,0,11.3,6.7,12.9,22.8c0,0-3.2-5.6-4.6-5.9c0,0,9.3,18.9-17.8,40.3l-4.9-53.8L292,492.6z"/>
			</g>
		</g>
	</g>
	<g class="st9">
		<g>
			<g>
				<defs>
					<rect id="SVGID_00000083058270622572841510000010977754984179350157_" x="254.3" y="495.2" width="28.3" height="54.6"/>
				</defs>
				<clipPath id="SVGID_00000093863537798848667290000000865589861019449260_">
					<use xlink:href="#SVGID_00000083058270622572841510000010977754984179350157_"  style="overflow:visible;"/>
				</clipPath>
				<path style="clip-path:url(#SVGID_00000093863537798848667290000000865589861019449260_);fill:#F2931D;" d="M263.1,495.2
					c0,0-10,8.6-8.7,24.7c0,0,2.1-6.1,3.5-6.6c0,0-5.8,20.2,24.7,36.4l-4.8-53.8L263.1,495.2z"/>
			</g>
		</g>
	</g>
	<path class="st5" d="M408.1,147.5c16.7,0.9,29.2,18.9,28.1,40.1c-1.2,21.2-15.6,37.7-32.3,36.8"/>
	<g>
		<g>
			<defs>
				<path id="SVGID_00000153683416482687812530000013409903966730588571_" d="M428.7,210.5c0,0,6.7-6.8,7.5-23s-5.1-24.1-5.1-24.1
					L428.7,210.5z"/>
			</defs>
			<clipPath id="SVGID_00000154413561985532668970000015807923416232017843_">
				<use xlink:href="#SVGID_00000153683416482687812530000013409903966730588571_"  style="overflow:visible;"/>
			</clipPath>
			
				<linearGradient id="SVGID_00000049220403653839577350000013632552817587927230_" gradientUnits="userSpaceOnUse" x1="-762.793" y1="-241.9317" x2="-761.4626" y2="-241.9317" gradientTransform="matrix(-13.9983 -27.306 27.306 -13.9983 -3630.0908 -24011.5332)">
				<stop  offset="0" style="stop-color:#F8AA2A"/>
				<stop  offset="9.061772e-02" style="stop-color:#FBBA3C"/>
				<stop  offset="0.1921" style="stop-color:#FDC649"/>
				<stop  offset="0.3128" style="stop-color:#FECC51"/>
				<stop  offset="0.5" style="stop-color:#FECE53"/>
				<stop  offset="0.7532" style="stop-color:#FECD51"/>
				<stop  offset="0.8448" style="stop-color:#FDC74A"/>
				<stop  offset="0.9101" style="stop-color:#FBBE3F"/>
				<stop  offset="0.9626" style="stop-color:#F9B12E"/>
				<stop  offset="1" style="stop-color:#F6A31C"/>
			</linearGradient>
			
				<polygon style="clip-path:url(#SVGID_00000154413561985532668970000015807923416232017843_);fill:url(#SVGID_00000049220403653839577350000013632552817587927230_);" points="
				430.4,213.9 409.6,173.3 435.3,160.1 456.1,200.8 			"/>
		</g>
	</g>
	<polygon class="st0" points="284.6,499.1 284.5,499.8 283.9,500.1 284.6,500.1 284.8,500.8 284.9,500 285.5,499.8 284.9,499.7 	"/>
	<polygon class="st0" points="271.8,521.8 271.7,522.4 271.1,522.7 271.8,522.8 272,523.4 272.1,522.7 272.7,522.5 272,522.4 	"/>
	<polygon class="st0" points="283.1,523.4 282.8,523.6 282.4,523.5 282.6,523.8 282.5,524.2 282.8,523.9 283.1,524.1 282.9,523.8 	
		"/>
	<polygon class="st0" points="298.6,505.5 298.3,505.8 297.9,505.6 298.2,505.9 298,506.4 298.4,506.1 298.7,506.3 298.5,505.9 	"/>
	<polygon class="st0" points="293.3,517 293,517.2 292.6,517 292.8,517.3 292.7,517.8 293,517.5 293.4,517.7 293.1,517.3 	"/>
	<polygon class="st0" points="264.8,516.5 264.5,516.7 264.1,516.6 264.4,516.9 264.2,517.3 264.5,517 264.9,517.2 264.7,516.9 	"/>
	<polygon class="st0" points="283,531.3 282.9,532 282.3,532.3 283,532.3 283.3,533 283.3,532.2 283.9,532 283.2,531.9 	"/>
	<polygon class="st0" points="276.1,524.6 276,526.2 274.7,526.9 276.2,527 276.9,528.5 276.9,526.8 278.3,526.2 276.8,526 	"/>
	<polygon class="st0" points="288.4,534.7 288.3,536.3 287,537.1 288.5,537.1 289.2,538.6 289.3,536.9 290.6,536.3 289.1,536.1 	"/>
	<polygon class="st0" points="261.5,509.8 261.4,511.4 260.1,512.2 261.5,512.2 262.2,513.7 262.3,512 263.7,511.4 262.2,511.2 	"/>
	<g>
		<g>
			<defs>
				<path id="SVGID_00000105390394412398265040000010588516162267282586_" d="M368.8,301.5l-216.1,20.1c-1.4,0.1-2.5,1.2-2.6,2.6
					c-1.5,21.6-7.6,181.7,127.3,169.6c135.1-12.1,99.2-169.1,94.4-190.1c-0.3-1.3-1.4-2.2-2.7-2.2
					C368.9,301.5,368.9,301.5,368.8,301.5"/>
			</defs>
			<clipPath id="SVGID_00000110428728616605240840000014958362800431981209_">
				<use xlink:href="#SVGID_00000105390394412398265040000010588516162267282586_"  style="overflow:visible;"/>
			</clipPath>
			
				<linearGradient id="SVGID_00000012456182182155320500000003508678710977099136_" gradientUnits="userSpaceOnUse" x1="-772.8765" y1="-230.1605" x2="-771.5463" y2="-230.1605" gradientTransform="matrix(-171.2472 15.4505 15.4505 171.2472 -128413.8906 51749.7891)">
				<stop  offset="0" style="stop-color:#ECECEC"/>
				<stop  offset="9.915366e-03" style="stop-color:#EEEEEE"/>
				<stop  offset="8.339329e-02" style="stop-color:#F8F8F8"/>
				<stop  offset="0.1858" style="stop-color:#FEFEFE"/>
				<stop  offset="0.4608" style="stop-color:#FFFFFF"/>
				<stop  offset="0.7826" style="stop-color:#FEFEFE"/>
				<stop  offset="0.9024" style="stop-color:#F8F8F8"/>
				<stop  offset="0.9884" style="stop-color:#EEEEEE"/>
				<stop  offset="1" style="stop-color:#ECECEC"/>
			</linearGradient>
			
				<polygon style="clip-path:url(#SVGID_00000110428728616605240840000014958362800431981209_);fill:url(#SVGID_00000012456182182155320500000003508678710977099136_);" points="
				410.3,277.3 124.1,303.1 144.6,530 430.7,504.2 			"/>
		</g>
	</g>
	<g class="st2">
		<g>
			<g>
				<defs>
					<rect id="SVGID_00000108276642292797459340000000819507017063997574_" x="168.2" y="427.6" width="3.4" height="3.4"/>
				</defs>
				<clipPath id="SVGID_00000057105732907925658580000014160790731101129892_">
					<use xlink:href="#SVGID_00000108276642292797459340000000819507017063997574_"  style="overflow:visible;"/>
				</clipPath>
				<path style="clip-path:url(#SVGID_00000057105732907925658580000014160790731101129892_);fill:#F5F5F5;" d="M168.2,429.5
					c0.1,0.9,0.9,1.6,1.9,1.6c0.9-0.1,1.6-0.9,1.6-1.9c-0.1-0.9-0.9-1.6-1.9-1.6C168.8,427.7,168.1,428.5,168.2,429.5"/>
			</g>
		</g>
	</g>
	<path class="st5" d="M401.4,312.2c0,0,1.9,34.9,8.7,58.2C410.2,370.5,408.8,328.5,401.4,312.2"/>
	<polygon class="st0" points="293.6,500.5 292.8,501.9 291.1,502 292.6,502.7 292.6,504.5 293.4,502.9 295.1,503 293.6,502.1 	"/>
	<polygon class="st0" points="282.9,542.2 282.1,543.6 280.4,543.7 281.9,544.4 281.9,546.2 282.8,544.6 284.4,544.7 283,543.8 	"/>
	<polygon class="st0" points="285.6,506.2 285.5,506.9 284.9,507.2 285.6,507.2 286,507.9 286,507.1 286.6,506.8 285.9,506.8 	"/>
	<polygon class="st0" points="265.4,528.2 265.4,528.9 264.8,529.3 265.5,529.3 265.8,529.9 265.8,529.2 266.5,528.9 265.7,528.8 	
		"/>
	<polygon class="st0" points="271.7,535.4 271.7,536.1 271.1,536.4 271.8,536.4 272.1,537.1 272.1,536.3 272.8,536 272.1,536 	"/>
	<polygon class="st0" points="291.2,530.1 291.2,530.8 290.6,531.2 291.3,531.1 291.6,531.8 291.6,531 292.3,530.7 291.6,530.7 	"/>
	<polygon class="st0" points="260.4,517 260.3,517.7 259.7,518.1 260.4,518 260.8,518.7 260.8,518 261.4,517.7 260.7,517.6 	"/>
	<polygon class="st0" points="267.8,510.9 267.8,511.6 267.2,512 267.9,511.9 268.2,512.6 268.2,511.9 268.9,511.5 268.1,511.5 	"/>
	<polygon class="st0" points="278.5,506 277.6,506.5 276.7,506.1 277.3,506.9 276.8,507.8 277.7,507.2 278.6,507.7 278,506.9 	"/>
	<polygon class="st0" points="279,517.1 279.1,518.6 277.8,519.6 279.3,519.4 280.3,520.8 280.1,519.1 281.5,518.3 279.9,518.3 	"/>
	<polygon class="st0" points="293,523.1 293.1,524.7 291.8,525.7 293.4,525.5 294.3,526.9 294.2,525.2 295.5,524.4 293.9,524.4 	"/>
	<polygon class="st0" points="295.2,509.3 295.3,510.8 294,511.8 295.5,511.6 296.5,513 296.3,511.4 297.7,510.5 296.1,510.6 	"/>
	<polygon class="st0" points="264.1,521.5 264.2,523 262.9,524 264.4,523.8 265.4,525.2 265.2,523.5 266.6,522.7 265,522.7 	"/>
	<polygon class="st0" points="290.2,498.6 289.9,498.9 289.5,498.7 289.8,499.1 289.6,499.5 290,499.2 290.4,499.4 290.1,499 	"/>
	<polygon class="st0" points="265.1,503.1 264.7,503.4 264.3,503.2 264.6,503.6 264.5,504 264.8,503.7 265.2,503.9 264.9,503.5 	"/>
	<polygon class="st0" points="290.4,510.8 290.1,511.1 289.6,511 289.9,511.3 289.8,511.7 290.1,511.4 290.5,511.6 290.2,511.2 	"/>
	<polygon class="st0" points="280.8,502.5 280.5,502.8 280,502.7 280.3,503 280.2,503.4 280.5,503.1 280.9,503.3 280.7,502.9 	"/>
	<polygon class="st0" points="282.4,512 281.6,512.5 280.6,512.1 281.2,512.9 280.7,513.8 281.6,513.2 282.5,513.7 282,512.9 	"/>
	<polygon class="st0" points="290.4,519.2 289.6,519.8 288.7,519.3 289.3,520.1 288.8,521.1 289.7,520.5 290.5,521 290,520.1 	"/>
	<polygon class="st0" points="299.1,518.5 298.3,519 297.4,518.5 297.9,519.4 297.4,520.3 298.3,519.7 299.2,520.2 298.7,519.3 	"/>
	<polygon class="st0" points="280.5,537.5 279.7,537 279.7,536 279.2,536.8 278.2,536.8 279.1,537.4 279,538.4 279.6,537.5 	"/>
	<polygon class="st0" points="272.3,530.4 271.9,530.7 271.5,530.6 271.8,530.9 271.7,531.3 272,531 272.4,531.2 272.1,530.8 	"/>
	<polygon class="st0" points="275.8,500.6 275,502 273.3,502.1 274.8,502.8 274.8,504.6 275.6,503 277.3,503.1 275.9,502.2 	"/>
	<polygon class="st0" points="270.4,516.4 270,516.6 269.6,516.4 269.9,516.8 269.7,517.2 270,516.9 270.4,517.1 270.2,516.8 	"/>
	<polygon class="st0" points="286,527.2 285.6,527.5 285.2,527.3 285.5,527.7 285.3,528.1 285.7,527.8 286,528 285.8,527.6 	"/>
	<polygon class="st0" points="274.6,512.7 274.3,512.9 273.9,512.8 274.2,513.1 274,513.6 274.4,513.2 274.8,513.4 274.5,513.1 	"/>
	<polygon class="st0" points="269.1,500.5 268.7,500.8 268.3,500.6 268.6,501 268.4,501.4 268.8,501.1 269.2,501.3 268.9,500.9 	"/>
	<polygon class="st0" points="257.2,509.6 256.8,509.9 256.4,509.8 256.7,510.1 256.5,510.5 256.9,510.2 257.3,510.4 257,510 	"/>
	<g class="st15">
		<g>
			<g>
				<defs>
					<rect id="SVGID_00000123405327355266087680000007946384579807183488_" x="151.9" y="301.5" width="216.9" height="21.8"/>
				</defs>
				<clipPath id="SVGID_00000059282356289708719380000004988114251942447019_">
					<use xlink:href="#SVGID_00000123405327355266087680000007946384579807183488_"  style="overflow:visible;"/>
				</clipPath>
				<path style="clip-path:url(#SVGID_00000059282356289708719380000004988114251942447019_);fill:#D9D9D9;" d="M368.8,301.5
					c0,0-98.1,28.8-216.9,20.2C151.9,321.7,267.3,309,368.8,301.5"/>
			</g>
		</g>
	</g>
	
		<rect x="247.8" y="57.4" transform="matrix(4.520716e-02 -0.999 0.999 4.520716e-02 195.9385 321.9173)" class="st17" width="37.2" height="2.2"/>
	<g>
		<g>
			<defs>
				<path id="SVGID_00000078033155002796157410000008448905277837150380_" d="M254.2,28.3c-0.3,7.5,5.5,13.9,13,14.2
					c7.5,0.3,13.9-5.5,14.2-13c0.3-7.5-5.5-13.9-13-14.2c-0.2,0-0.4,0-0.6,0C260.5,15.4,254.5,21,254.2,28.3"/>
			</defs>
			<clipPath id="SVGID_00000052810392735482993040000009514036798613117320_">
				<use xlink:href="#SVGID_00000078033155002796157410000008448905277837150380_"  style="overflow:visible;"/>
			</clipPath>
			
				<linearGradient id="SVGID_00000011726540623127208820000000519042571083366590_" gradientUnits="userSpaceOnUse" x1="-747.2816" y1="-238.6182" x2="-745.9513" y2="-238.6182" gradientTransform="matrix(-20.4108 -1.019 -1.019 20.4108 -15214.4746 4138.7075)">
				<stop  offset="0" style="stop-color:#FECE53"/>
				<stop  offset="3.810392e-02" style="stop-color:#FCC142"/>
				<stop  offset="9.462591e-02" style="stop-color:#F9B432"/>
				<stop  offset="0.1642" style="stop-color:#F7AA25"/>
				<stop  offset="0.2598" style="stop-color:#F6A41E"/>
				<stop  offset="0.5049" style="stop-color:#F6A31C"/>
				<stop  offset="0.6685" style="stop-color:#F6A520"/>
				<stop  offset="0.8024" style="stop-color:#F8AE2B"/>
				<stop  offset="0.9254" style="stop-color:#FABB3C"/>
				<stop  offset="1" style="stop-color:#FCC64A"/>
			</linearGradient>
			
				<polygon style="clip-path:url(#SVGID_00000052810392735482993040000009514036798613117320_);fill:url(#SVGID_00000011726540623127208820000000519042571083366590_);" points="
				283,15.4 253.9,14 252.5,42.8 281.6,44.3 			"/>
		</g>
	</g>
	<g>
		<g>
			<defs>
				<path id="SVGID_00000045601378381827979060000018013077365694376343_" d="M267.2,41.9c-7.1-0.3-12.7-6.4-12.3-13.5
					c0.3-7.1,6.4-12.7,13.5-12.3c7.1,0.3,12.7,6.4,12.3,13.5c-0.3,6.9-6,12.3-12.9,12.3C267.6,41.9,267.4,41.9,267.2,41.9
					 M253.5,28.3c-0.4,7.9,5.7,14.5,13.6,14.9c0.2,0,0.4,0,0.7,0c7.6,0,13.9-6,14.2-13.6c0.4-7.9-5.7-14.5-13.6-14.9
					c-0.2,0-0.4,0-0.7,0C260.2,14.7,253.9,20.7,253.5,28.3"/>
			</defs>
			<clipPath id="SVGID_00000178178160389978286420000001806300538493778068_">
				<use xlink:href="#SVGID_00000045601378381827979060000018013077365694376343_"  style="overflow:visible;"/>
			</clipPath>
			
				<linearGradient id="SVGID_00000153691089008162939210000008479501249298591931_" gradientUnits="userSpaceOnUse" x1="-748.6294" y1="-238.1838" x2="-747.2991" y2="-238.1838" gradientTransform="matrix(-21.4098 -1.0689 -1.0689 21.4098 -16000.6172 4328.9185)">
				<stop  offset="0" style="stop-color:#FECE53"/>
				<stop  offset="3.810392e-02" style="stop-color:#FCC142"/>
				<stop  offset="9.462591e-02" style="stop-color:#F9B432"/>
				<stop  offset="0.1642" style="stop-color:#F7AA25"/>
				<stop  offset="0.2598" style="stop-color:#F6A41E"/>
				<stop  offset="0.5049" style="stop-color:#F6A31C"/>
				<stop  offset="0.6685" style="stop-color:#F6A520"/>
				<stop  offset="0.8024" style="stop-color:#F8AE2B"/>
				<stop  offset="0.9254" style="stop-color:#FABB3C"/>
				<stop  offset="1" style="stop-color:#FCC64A"/>
			</linearGradient>
			
				<polygon style="clip-path:url(#SVGID_00000178178160389978286420000001806300538493778068_);fill:url(#SVGID_00000153691089008162939210000008479501249298591931_);" points="
				283.8,14.8 253.2,13.2 251.7,43.1 282.3,44.7 			"/>
		</g>
	</g>
	<path class="st20" d="M260.7,22.1c-0.1,1.4,1,2.5,2.4,2.6s2.5-1,2.6-2.4s-1-2.5-2.4-2.6C262,19.7,260.8,20.8,260.7,22.1"/>
	<path class="st5" d="M227.9,78.2c0.5-10.1,17.6-17.6,38.2-16.7c20.6,0.9,37,9.9,36.5,20L227.9,78.2z"/>
	<g class="st21">
		<g>
			<g>
				<defs>
					<rect id="SVGID_00000019642424301370236790000001394634237534342025_" x="118.5" y="222.7" width="285.3" height="67.5"/>
				</defs>
				<clipPath id="SVGID_00000088104142227228058470000004250787339136049544_">
					<use xlink:href="#SVGID_00000019642424301370236790000001394634237534342025_"  style="overflow:visible;"/>
				</clipPath>
				<path style="clip-path:url(#SVGID_00000088104142227228058470000004250787339136049544_);fill:#D9D9D9;" d="M403.8,235.6
					c-0.9,5.5-2.7,10.9-4.9,16c-4.1,9.2-11.6,16.3-20.6,20.7c-25.2,12.4-55.1,16.1-82.8,17.4c-12.1,0.6-24.2,0.6-36.2,0.4l-1.7-0.1
					c-12-0.9-24.1-2-36-3.7c-27.5-3.8-57-10.2-80.9-24.8c-8.5-5.2-15.4-13-18.6-22.5c-1.8-5.3-3-10.8-3.5-16.4"/>
			</g>
		</g>
	</g>
	<path class="st5" d="M122.8,133.2c-16.7-0.8-31,15.8-31.9,37.1c-1,21.2,11.8,39.1,28.5,39.8"/>
	<g class="st23">
		<g>
			<g>
				<defs>
					<rect id="SVGID_00000060013820693033678330000012223409901523645857_" x="247.1" y="61.4" width="37.8" height="3.5"/>
				</defs>
				<clipPath id="SVGID_00000128459381761008018760000017973694122745858738_">
					<use xlink:href="#SVGID_00000060013820693033678330000012223409901523645857_"  style="overflow:visible;"/>
				</clipPath>
				<path style="clip-path:url(#SVGID_00000128459381761008018760000017973694122745858738_);fill:#D9D9D9;" d="M284.9,64.9
					l-37.8-1.7c0,0,6.3-2.4,19-1.7S284.9,64.9,284.9,64.9"/>
			</g>
		</g>
	</g>
	<g>
		<g>
			<defs>
				<path id="SVGID_00000128455075086931483720000008098587152959593377_" d="M226.3,73.8c-28.5,1.4-59.1,5.9-84.8,21
					c-3.8,2.2-7.2,4.8-10.2,8.3c-6.1,7.3-9.4,16.8-10.4,26.7c-3.1,31.4-3.3,39.1-3.3,39.1l-0.4,8.1c0,0-0.5,7.6-0.3,39.2
					c0.1,9.9,2.6,19.7,8,27.5c2.6,3.8,5.8,6.6,9.4,9.2c24.2,17.3,54.4,24.6,82.6,28.6c12.4,1.7,28.9,3.3,37.5,3.4l2.8,0.1l2.1,0.1
					l2.8,0.1c8.6,0.6,25.1,0.6,37.6,0c28.5-1.4,59.1-5.9,84.8-21c3.8-2.2,7.2-4.8,10.2-8.3c6.1-7.3,9.4-16.8,10.4-26.7
					c3.1-31.4,3.3-39.1,3.3-39.1l0.4-8.1c0,0,0.5-7.6,0.3-39.2c-0.1-9.9-2.6-19.7-8-27.5c-2.6-3.8-5.8-6.6-9.4-9.2
					c-24.2-17.3-54.4-24.6-82.6-28.6c-12.4-1.7-24.5-2.3-37.6-2.9l-2.8-0.1l-1.8-0.1l-2.8-0.1c-8.9-0.4-17.3-0.8-25.7-0.8
					C234.3,73.5,230.4,73.6,226.3,73.8"/>
			</defs>
			<clipPath id="SVGID_00000030462620318729041440000009313542964912081825_">
				<use xlink:href="#SVGID_00000128455075086931483720000008098587152959593377_"  style="overflow:visible;"/>
			</clipPath>
			
				<linearGradient id="SVGID_00000051349730343725222050000010394648632835187117_" gradientUnits="userSpaceOnUse" x1="-773.4745" y1="-229.8275" x2="-772.1442" y2="-229.8275" gradientTransform="matrix(-218.8512 -10.9266 -10.9266 218.8512 -171378.4375 42033.4883)">
				<stop  offset="0" style="stop-color:#ECECEC"/>
				<stop  offset="9.915366e-03" style="stop-color:#EEEEEE"/>
				<stop  offset="8.339329e-02" style="stop-color:#F8F8F8"/>
				<stop  offset="0.1858" style="stop-color:#FEFEFE"/>
				<stop  offset="0.4608" style="stop-color:#FFFFFF"/>
				<stop  offset="0.7826" style="stop-color:#FEFEFE"/>
				<stop  offset="0.9024" style="stop-color:#F8F8F8"/>
				<stop  offset="0.9884" style="stop-color:#EEEEEE"/>
				<stop  offset="1" style="stop-color:#ECECEC"/>
			</linearGradient>
			
				<polygon style="clip-path:url(#SVGID_00000030462620318729041440000009313542964912081825_);fill:url(#SVGID_00000051349730343725222050000010394648632835187117_);" points="
				419.9,74 117.4,58.9 106.1,285.3 408.6,300.4 			"/>
		</g>
	</g>
	<g>
		<g>
			<defs>
				<path id="SVGID_00000007409450209860537040000000465999635800414139_" d="M234,96.9c-22.6,1.1-46.9,4.6-67.4,16.4
					c-3,1.7-5.7,3.7-8.1,6.5c-4.8,5.7-7.5,13.1-8.3,20.8c-2.5,24.5-2.6,30.5-2.6,30.5l-0.3,6.4c0,0-0.4,6-0.2,30.6
					c0.1,7.7,2,15.4,6.4,21.5c2.1,3,4.6,5.2,7.5,7.2c19.3,13.6,43.2,19.3,65.6,22.4c9.9,1.4,22.9,2.6,29.8,2.7l2.2,0.1l1.6,0.1
					l2.2,0.1c6.8,0.5,19.9,0.5,29.9,0c22.6-1.1,46.9-4.6,67.3-16.4c3-1.7,5.7-3.7,8.1-6.5c4.8-5.7,7.5-13.1,8.3-20.8
					c2.5-24.5,2.6-30.5,2.6-30.5l0.3-6.4c0,0,0.4-6,0.2-30.6c-0.1-7.7-2-15.4-6.4-21.5c-2.1-3-4.6-5.2-7.5-7.2
					c-19.3-13.6-43.2-19.3-65.6-22.4c-9.9-1.4-19.4-1.8-29.9-2.3l-2.2-0.1l-1.4-0.1l-2.2-0.1c-7.1-0.3-13.9-0.6-20.6-0.6
					C240.2,96.7,237.1,96.8,234,96.9"/>
			</defs>
			<clipPath id="SVGID_00000093165078455650490290000000226068942014869140_">
				<use xlink:href="#SVGID_00000007409450209860537040000000465999635800414139_"  style="overflow:visible;"/>
			</clipPath>
			
				<linearGradient id="SVGID_00000121281658995409228220000005566204556940141700_" gradientUnits="userSpaceOnUse" x1="-772.7781" y1="-230.0284" x2="-771.4478" y2="-230.0284" gradientTransform="matrix(-173.8447 -8.6662 -8.5502 170.9874 -135931.3438 32820.3438)">
				<stop  offset="0" style="stop-color:#F8AA2A"/>
				<stop  offset="9.061772e-02" style="stop-color:#FBBA3C"/>
				<stop  offset="0.1921" style="stop-color:#FDC649"/>
				<stop  offset="0.3128" style="stop-color:#FECC51"/>
				<stop  offset="0.5" style="stop-color:#FECE53"/>
				<stop  offset="0.7532" style="stop-color:#FECD51"/>
				<stop  offset="0.8448" style="stop-color:#FDC74A"/>
				<stop  offset="0.9101" style="stop-color:#FBBE3F"/>
				<stop  offset="0.9626" style="stop-color:#F9B12E"/>
				<stop  offset="1" style="stop-color:#F6A31C"/>
			</linearGradient>
			
				<polygon style="clip-path:url(#SVGID_00000093165078455650490290000000226068942014869140_);fill:url(#SVGID_00000121281658995409228220000005566204556940141700_);" points="
				387.7,97.1 147.6,85.2 138.7,262.2 378.8,274.2 			"/>
		</g>
	</g>
	<path class="st27" d="M204.9,174.4c-0.6,13.3,6.5,24.4,15.9,24.8c9.4,0.4,17.4-10,18-23.3s-6.5-24.4-15.9-24.8
		C213.6,150.7,205.5,161.1,204.9,174.4"/>
	<path class="st27" d="M285.8,178.1c-0.6,13.3,6.5,24.4,15.9,24.8c9.4,0.4,17.4-10,18-23.3s-6.5-24.4-15.9-24.8
		C294.5,154.4,286.4,164.8,285.8,178.1"/>
	<path class="st27" d="M199.8,142.8c0,0,14.5-9.8,39.4-4.1C239.3,138.7,213.3,121.8,199.8,142.8"/>
	<g>
		<g>
			<defs>
				<path id="SVGID_00000085225987173160904150000015790167783317314748_" d="M293,169.4c-0.1,2.9,1.4,5.4,3.5,5.5s3.9-2.2,4-5.2
					c0.1-2.9-1.4-5.4-3.5-5.5h-0.1C294.9,164.3,293.2,166.5,293,169.4"/>
			</defs>
			<clipPath id="SVGID_00000070115007912667957560000009821272099573548942_">
				<use xlink:href="#SVGID_00000085225987173160904150000015790167783317314748_"  style="overflow:visible;"/>
			</clipPath>
			
				<linearGradient id="SVGID_00000127746999610008424040000009876786683166401213_" gradientUnits="userSpaceOnUse" x1="-673.4477" y1="-257.3804" x2="-672.1174" y2="-257.3804" gradientTransform="matrix(-5.6524 -0.2822 -0.2822 5.6524 -3578.7043 1434.6061)">
				<stop  offset="0" style="stop-color:#ECECEC"/>
				<stop  offset="9.915366e-03" style="stop-color:#EEEEEE"/>
				<stop  offset="8.339329e-02" style="stop-color:#F8F8F8"/>
				<stop  offset="0.1858" style="stop-color:#FEFEFE"/>
				<stop  offset="0.4608" style="stop-color:#FFFFFF"/>
				<stop  offset="0.7826" style="stop-color:#FEFEFE"/>
				<stop  offset="0.9024" style="stop-color:#F8F8F8"/>
				<stop  offset="0.9884" style="stop-color:#EEEEEE"/>
				<stop  offset="1" style="stop-color:#ECECEC"/>
			</linearGradient>
			
				<polygon style="clip-path:url(#SVGID_00000070115007912667957560000009821272099573548942_);fill:url(#SVGID_00000127746999610008424040000009876786683166401213_);" points="
				301.2,164.3 292.9,163.9 292.4,175 300.7,175.4 			"/>
		</g>
	</g>
	<path class="st20" d="M211.3,165.7c-0.1,2.9,1.4,5.4,3.5,5.5s3.9-2.2,4-5.2c0.1-2.9-1.4-5.4-3.5-5.5
		C213.2,160.5,211.4,162.8,211.3,165.7"/>
	<path class="st27" d="M277.2,218l-32.7-1.5c0,0-2.6,19.7,15.5,20.5C278,237.9,277.2,218,277.2,218"/>
	<path class="st27" d="M330.1,141.7c0,0-14.4-9.9-39.4-4.5C290.7,137.1,316.9,120.5,330.1,141.7"/>
	<g class="st29">
		<g>
			<g>
				<defs>
					<rect id="SVGID_00000129911072908759904660000011738452978329677478_" x="141.5" y="73.6" width="248.2" height="31.2"/>
				</defs>
				<clipPath id="SVGID_00000061436421919378621530000016210804466394039447_">
					<use xlink:href="#SVGID_00000129911072908759904660000011738452978329677478_"  style="overflow:visible;"/>
				</clipPath>
				<path style="clip-path:url(#SVGID_00000061436421919378621530000016210804466394039447_);fill:#ECECEC;" d="M389.7,104.7
					c0,0-33.3-28.2-123.1-30.3c0,0-79.1-7.2-125.1,20.4c0,0,50.7-16.6,125.7-13C339.9,85.4,389.7,104.7,389.7,104.7"/>
			</g>
		</g>
	</g>
	<path class="st1" d="M402,312.8c0,0,7.7,28.9,8.5,58.3l78.6,33.6C489.1,404.6,478.1,324.6,402,312.8"/>
	<path class="st5" d="M410.5,371c0,0,32.5,22.6,78.6,33.6L410.5,371z"/>
	<g>
		<g>
			<defs>
				<path id="SVGID_00000059284503660803569170000013972896808387311277_" d="M477.1,368.4c-15.3-34.3-50.8-49.3-50.8-49.3
					C457.2,337.9,477.1,368.4,477.1,368.4"/>
			</defs>
			<clipPath id="SVGID_00000080174359126065000480000004548318898831340689_">
				<use xlink:href="#SVGID_00000059284503660803569170000013972896808387311277_"  style="overflow:visible;"/>
			</clipPath>
			
				<linearGradient id="SVGID_00000108291791708554145920000010476430992419743677_" gradientUnits="userSpaceOnUse" x1="-762.1724" y1="-232.924" x2="-760.8416" y2="-232.924" gradientTransform="matrix(-38.1718 0 0 38.1718 -28616.3906 9234.8789)">
				<stop  offset="0" style="stop-color:#F8AA2A"/>
				<stop  offset="9.061772e-02" style="stop-color:#FBBA3C"/>
				<stop  offset="0.1921" style="stop-color:#FDC649"/>
				<stop  offset="0.3128" style="stop-color:#FECC51"/>
				<stop  offset="0.5" style="stop-color:#FECE53"/>
				<stop  offset="0.7532" style="stop-color:#FECD51"/>
				<stop  offset="0.8448" style="stop-color:#FDC74A"/>
				<stop  offset="0.9101" style="stop-color:#FBBE3F"/>
				<stop  offset="0.9626" style="stop-color:#F9B12E"/>
				<stop  offset="1" style="stop-color:#F6A31C"/>
			</linearGradient>
			
				<rect x="426.3" y="319.1" style="clip-path:url(#SVGID_00000080174359126065000480000004548318898831340689_);fill:url(#SVGID_00000108291791708554145920000010476430992419743677_);" width="50.8" height="49.3"/>
		</g>
	</g>
	<g class="st2">
		<g>
			<g>
				<defs>
					<rect id="SVGID_00000001631687642743671830000008108491912208586148_" x="405.7" y="329.5" width="83.4" height="75.1"/>
				</defs>
				<clipPath id="SVGID_00000016033262334427511750000016554720642362760577_">
					<use xlink:href="#SVGID_00000001631687642743671830000008108491912208586148_"  style="overflow:visible;"/>
				</clipPath>
				<path style="clip-path:url(#SVGID_00000016033262334427511750000016554720642362760577_);fill:#D9D9D9;" d="M489.1,404.6
					c0,0-32.1-62.5-83.4-75.1l4.8,41.5L489.1,404.6z"/>
			</g>
		</g>
	</g>
	<g>
		<g>
			<defs>
				<path id="SVGID_00000088823899775162956310000016781184028958213527_" d="M255,494.1l0.3,3.7c0,0,23.9,4.6,44.7-4.2l-0.3-3.5
					C299.8,490.1,285.2,494.7,255,494.1"/>
			</defs>
			<clipPath id="SVGID_00000026144791773491958380000009728268126771699588_">
				<use xlink:href="#SVGID_00000088823899775162956310000016781184028958213527_"  style="overflow:visible;"/>
			</clipPath>
			
				<linearGradient id="SVGID_00000183224337287896452000000012407988976226835114_" gradientUnits="userSpaceOnUse" x1="-759.4327" y1="-233.804" x2="-758.1025" y2="-233.804" gradientTransform="matrix(-33.6502 3.036 3.036 33.6502 -24545.0938 10667.4014)">
				<stop  offset="0" style="stop-color:#F8AA2A"/>
				<stop  offset="9.061772e-02" style="stop-color:#FBBA3C"/>
				<stop  offset="0.1921" style="stop-color:#FDC649"/>
				<stop  offset="0.3128" style="stop-color:#FECC51"/>
				<stop  offset="0.5" style="stop-color:#FECE53"/>
				<stop  offset="0.7532" style="stop-color:#FECD51"/>
				<stop  offset="0.8448" style="stop-color:#FDC74A"/>
				<stop  offset="0.9101" style="stop-color:#FBBE3F"/>
				<stop  offset="0.9626" style="stop-color:#F9B12E"/>
				<stop  offset="1" style="stop-color:#F6A31C"/>
			</linearGradient>
			
				<polygon style="clip-path:url(#SVGID_00000026144791773491958380000009728268126771699588_);fill:url(#SVGID_00000183224337287896452000000012407988976226835114_);" points="
				299.7,486.1 253.9,490.2 255.4,506.4 301.2,502.3 			"/>
		</g>
	</g>
	<polygon class="st0" points="270,505 269.6,505.8 268.6,505.9 269.4,506.3 269.5,507.3 269.9,506.4 270.9,506.4 270,505.9 	"/>
	<g>
		<g>
			<defs>
				<path id="SVGID_00000020377831539101796950000011720966371676510595_" d="M90.9,170.3c-0.8,16.2,5.2,23.6,5.2,23.6l2.4-47.1
					C98.4,146.9,91.7,154.1,90.9,170.3"/>
			</defs>
			<clipPath id="SVGID_00000007402557722125880970000016337830205572287897_">
				<use xlink:href="#SVGID_00000020377831539101796950000011720966371676510595_"  style="overflow:visible;"/>
			</clipPath>
			
				<linearGradient id="SVGID_00000137842984472454573820000007324945916733832331_" gradientUnits="userSpaceOnUse" x1="-782.0028" y1="-208.6634" x2="-780.6725" y2="-208.6634" gradientTransform="matrix(16.6485 -25.7759 -25.7759 -16.6485 7724.7793 -23444.6289)">
				<stop  offset="0" style="stop-color:#F8AA2A"/>
				<stop  offset="9.061772e-02" style="stop-color:#FBBA3C"/>
				<stop  offset="0.1921" style="stop-color:#FDC649"/>
				<stop  offset="0.3128" style="stop-color:#FECC51"/>
				<stop  offset="0.5" style="stop-color:#FECE53"/>
				<stop  offset="0.7532" style="stop-color:#FECD51"/>
				<stop  offset="0.8448" style="stop-color:#FDC74A"/>
				<stop  offset="0.9101" style="stop-color:#FBBE3F"/>
				<stop  offset="0.9626" style="stop-color:#F9B12E"/>
				<stop  offset="1" style="stop-color:#F6A31C"/>
			</linearGradient>
			
				<polygon style="clip-path:url(#SVGID_00000007402557722125880970000016337830205572287897_);fill:url(#SVGID_00000137842984472454573820000007324945916733832331_);" points="
				96,197.7 119.9,160.7 92.6,143.1 68.6,180.1 			"/>
		</g>
	</g>
	<g class="st15">
		<g>
			<g>
				<defs>
					
						<rect id="SVGID_00000086650449654657923610000016586884051736740772_" x="266.4" y="407.8" transform="matrix(0.9959 -8.993544e-02 8.993544e-02 0.9959 -35.9187 26.0078)" width="8.5" height="7.6"/>
				</defs>
				<clipPath id="SVGID_00000045618964008789992380000004015902053160664452_">
					<use xlink:href="#SVGID_00000086650449654657923610000016586884051736740772_"  style="overflow:visible;"/>
				</clipPath>
				
					<rect x="266.6" y="408.2" transform="matrix(0.9959 -8.993544e-02 8.993544e-02 0.9959 -35.9243 25.9995)" style="clip-path:url(#SVGID_00000045618964008789992380000004015902053160664452_);fill:#D9D9D9;" width="7.9" height="6.9"/>
			</g>
		</g>
	</g>
	<path class="st36" d="M270.5,408.3c21.4-1.9,37.3-20.9,35.4-42.4c-1.9-21.4-20.9-37.3-42.4-35.4c-21.4,1.9-37.3,20.9-35.4,42.4
		C230,394.4,249,410.2,270.5,408.3"/>
	<path class="st5" d="M263.5,331.4c21-1.9,39.6,13.6,41.5,34.6s-13.6,39.6-34.6,41.5s-39.6-13.6-41.5-34.6
		C227.1,351.9,242.5,333.3,263.5,331.4 M227.2,373c2,21.9,21.4,38.1,43.3,36.1s38.1-21.4,36.1-43.3s-21.4-38.1-43.3-36.1
		C241.5,331.7,225.3,351.1,227.2,373"/>
	<g>
		<g>
			<defs>
				<path id="SVGID_00000150805579277792901080000012406142868048381347_" d="M264.2,338.8c-16.9,1.5-29.4,16.5-27.9,33.4
					s16.5,29.4,33.4,27.9s29.4-16.5,27.9-33.4c-1.4-16-14.9-28-30.6-28C266.1,338.6,265.1,338.7,264.2,338.8"/>
			</defs>
			<clipPath id="SVGID_00000150101981574136305590000001343022393131120026_">
				<use xlink:href="#SVGID_00000150805579277792901080000012406142868048381347_"  style="overflow:visible;"/>
			</clipPath>
			
				<linearGradient id="SVGID_00000037650727372776665180000013549696415186389938_" gradientUnits="userSpaceOnUse" x1="-763.9538" y1="-233.2163" x2="-762.6235" y2="-233.2163" gradientTransform="matrix(-46.0953 4.1589 4.1589 46.0953 -33947.082 14294.7246)">
				<stop  offset="0" style="stop-color:#F8AA2A"/>
				<stop  offset="0.1693" style="stop-color:#FBBB3D"/>
				<stop  offset="0.3628" style="stop-color:#FDC94D"/>
				<stop  offset="0.5" style="stop-color:#FECE53"/>
				<stop  offset="0.6549" style="stop-color:#FECC50"/>
				<stop  offset="0.7777" style="stop-color:#FCC446"/>
				<stop  offset="0.8891" style="stop-color:#FAB736"/>
				<stop  offset="0.9939" style="stop-color:#F6A41E"/>
				<stop  offset="1" style="stop-color:#F6A31C"/>
			</linearGradient>
			
				<polygon style="clip-path:url(#SVGID_00000150101981574136305590000001343022393131120026_);fill:url(#SVGID_00000037650727372776665180000013549696415186389938_);" points="
				298.6,332.9 229.1,339.1 235.3,407.4 304.8,401.1 			"/>
		</g>
	</g>
	<g>
		<g>
			<defs>
				<path id="SVGID_00000148650699627648149090000007041728549542655360_" d="M264.2,338.8c-16.7,1.5-28.9,16.4-27.4,33.4
					c1.5,16.9,16.3,29.4,32.9,27.9c16.7-1.5,28.9-16.4,27.4-33.4c-1.4-16-14.7-28.1-30.2-28.1C266,338.6,265.1,338.7,264.2,338.8"/>
			</defs>
			<clipPath id="SVGID_00000053526873066445295070000016443115383796024717_">
				<use xlink:href="#SVGID_00000148650699627648149090000007041728549542655360_"  style="overflow:visible;"/>
			</clipPath>
			<g style="clip-path:url(#SVGID_00000053526873066445295070000016443115383796024717_);">
				<g>
					<g>
						<defs>
							<rect id="SVGID_00000088134436334143489650000000633346115383322528_" x="236.6" y="358.1" width="62.1" height="22.8"/>
						</defs>
						<clipPath id="SVGID_00000051378762397106437230000008127953029158978462_">
							<use xlink:href="#SVGID_00000088134436334143489650000000633346115383322528_"  style="overflow:visible;"/>
						</clipPath>
						<polygon style="clip-path:url(#SVGID_00000051378762397106437230000008127953029158978462_);fill:#E7C275;" points="
							237.6,380.9 236.6,380.8 237.8,371.1 242.9,370.7 244.2,361.7 246.7,370.1 250.3,369.7 251.8,359.8 255.8,374.9 256.6,369.1 
							260.6,369 261.9,360.9 264.2,368.7 269,368.2 270.8,373.7 272.6,358.1 275.8,367.6 281.5,367.1 283.7,373.1 285.1,366.8 
							291.8,366.1 294.8,359.6 298.8,369.1 297.8,369.5 294.7,362.1 292.5,367.1 285.9,367.7 284,376.7 280.9,368.1 275.1,368.7 
							273.1,362.6 271.2,378.5 268.3,369.3 263.5,369.7 262.2,365.4 261.4,370 257.4,370.1 256.1,380 252,364.7 251.2,370.6 
							246,371.1 244.6,366.3 243.8,371.6 238.7,372 						"/>
					</g>
				</g>
			</g>
		</g>
	</g>
	<g class="st40">
		<g>
			<g>
				<defs>
					<rect id="SVGID_00000057844824072818505720000016492725040634209199_" x="220.1" y="414.2" width="112.4" height="80.1"/>
				</defs>
				<clipPath id="SVGID_00000165938814591256453100000006214661704617363869_">
					<use xlink:href="#SVGID_00000057844824072818505720000016492725040634209199_"  style="overflow:visible;"/>
				</clipPath>
				<path style="clip-path:url(#SVGID_00000165938814591256453100000006214661704617363869_);fill:#D9D9D9;" d="M280.1,414.9
					c0-0.4-0.4-0.7-0.7-0.6l-8.8,0.8l-8.8,0.8c-0.4,0-0.7,0.4-0.6,0.7l3.7,41.2c0.4,4-1.8,7.9-5.5,9.7l-39.3,19.1
					c0,0,20.1,10.6,57.8,7.2c36.7-3.3,54.6-17.3,54.6-17.3L291,464.7c-3.9-1.1-6.7-4.5-7.1-8.5L280.1,414.9z"/>
			</g>
		</g>
	</g>
	<path class="st5" d="M332.4,476.4c0,0-19.1,14.1-55.1,17.4c-36,3.2-57.3-7.2-57.3-7.2s19.6,6.3,57.1,3.7
		C277.2,490.2,306.3,489.4,332.4,476.4"/>
</g>
</svg>
