<?xml version="1.0" encoding="utf-8"?>
<!-- Generator: Adobe Illustrator 25.4.1, SVG Export Plug-In . SVG Version: 6.00 Build 0)  -->
<svg version="1.1" id="Layer_1" xmlns="http://www.w3.org/2000/svg" xmlns:xlink="http://www.w3.org/1999/xlink" x="0px" y="0px"
	 viewBox="0 0 41 44" style="enable-background:new 0 0 41 44;" xml:space="preserve">
<style type="text/css">
	.st0{fill:#FCB721;}
</style>
<path class="st0" d="M12.2,35.6c-0.9,0-1.7-0.6-1.9-1.5L9,28.8c-0.2-0.9,0.3-1.9,1.2-2.3l5.6-2.4c0.8-0.3,1.8-0.1,2.3,0.6l2.1,2.5
	c3.3-1.7,6-4.4,7.6-7.6l-2.5-2.1c-0.7-0.6-0.9-1.5-0.6-2.3l2.4-5.6c0.4-0.9,1.3-1.4,2.3-1.2l5.2,1.2c0.9,0.2,1.6,1,1.5,1.9
	C36.1,24.8,25.4,35.5,12.2,35.6 M16.6,25.6c-0.1,0-0.1,0-0.2,0L10.8,28c-0.2,0.1-0.3,0.3-0.2,0.5l1.2,5.2c0,0.2,0.2,0.3,0.4,0.3
	c12.4,0,22.4-10,22.4-22.4c0-0.2-0.1-0.3-0.3-0.4L29.1,10c-0.2,0-0.4,0.1-0.5,0.2l-2.4,5.6c-0.1,0.2,0,0.4,0.1,0.5l3,2.5
	c0.3,0.2,0.4,0.6,0.2,1c-1.9,4.1-5.2,7.3-9.2,9.2c-0.3,0.2-0.7,0.1-1-0.2l-2.5-3C16.8,25.6,16.7,25.6,16.6,25.6"/>
</svg>
