<?xml version="1.0" encoding="utf-8"?>
<!-- Generator: Adobe Illustrator 25.4.1, SVG Export Plug-In . SVG Version: 6.00 Build 0)  -->
<svg version="1.1" id="Layer_1" xmlns="http://www.w3.org/2000/svg" xmlns:xlink="http://www.w3.org/1999/xlink" x="0px" y="0px"
	 viewBox="0 0 39.4 41" style="enable-background:new 0 0 39.4 41;" xml:space="preserve">
<style type="text/css">
	.st0{fill:#939599;}
</style>
<path class="st0" d="M11.3,13.6c0.9,0.4,1.8,0.9,2.6,1.5v0c-0.9,0.7-1.7,1.5-2.4,2.2h-0.3c-0.3,0-0.5,0-0.7,0
	c-0.5-0.6-0.9-1.2-1.3-1.9C9.9,14.8,10.5,14.1,11.3,13.6 M28.3,15c2.3,2.4,3.7,5.7,3.7,9.1v0.6c-0.5,0.1-1,0.2-1.5,0.3
	c-0.6-0.7-1.4-1.3-2.4-1.6c-1-2.6-2.4-5.1-4.1-7.3C25.3,15.6,26.8,15.2,28.3,15 M17.4,19.9c0.5,0.2,1,0.3,1.6,0.3c0.2,0,0.3,0,0.5,0
	c1.1,1.4,1.9,2.9,2.6,4.5c-2.1-0.5-4-1.3-5.8-2.4c0-0.4,0-0.9-0.1-1.3C16.6,20.7,17,20.2,17.4,19.9 M6.2,21.4c0,0,0.1,0.1,0.1,0.1
	c0,0.3-0.1,0.5-0.1,0.8c0,0.7,0.1,1.3,0.4,2c-0.2,0.5-0.4,1-0.6,1.4c-0.1-0.5-0.1-1-0.1-1.6C5.9,23.2,6,22.3,6.2,21.4 M12.8,27.1
	c1.7,1.1,3.6,2,5.5,2.6c-2.2,1.6-4.1,3.5-5.7,5.7c-0.9-0.5-1.7-1.2-2.5-1.9c0.3-2.2,0.9-4.3,1.8-6.3C12.1,27.2,12.4,27.2,12.8,27.1
	 M23.8,33.2c0,1-0.1,2.1-0.3,3.1c-1.5,0.6-3,0.9-4.6,0.9h-0.1C20.3,35.6,22,34.2,23.8,33.2 M18.9,9.3c-1.9,0-3.6,0.3-5.2,1
	c1.3,0.6,2.5,1.4,3.7,2.2c0.5-0.3,1-0.4,1.6-0.4c0.9,0,1.6,0.3,2.2,0.9c1.6-0.7,3.4-1.3,5.2-1.6C24.2,10,21.6,9.3,18.9,9.3
	 M11.1,11.5c-1.6,1-3,2.3-4.2,3.9c0.9,1.5,1.8,2.9,3,4.1c0.4-0.2,0.9-0.3,1.4-0.3c0.3,0,0.6,0,0.9,0.1c1.1-1.3,2.3-2.4,3.7-3.4
	c-0.1-0.2-0.1-0.5-0.1-0.7c0-0.3,0.1-0.7,0.1-1C14.5,13.1,12.9,12.2,11.1,11.5 M28.9,13.1c-2.4,0.2-4.7,0.8-6.8,1.7v0.3
	c0,0.5-0.1,1-0.3,1.4c2.1,2.5,3.8,5.4,4.8,8.5c1.3,0,2.4,0.8,2.9,1.9c1.4-0.1,2.8-0.4,4.2-0.8c0.1-0.7,0.1-1.4,0.1-2.1
	C33.8,19.7,31.9,15.8,28.9,13.1 M5.7,17.4c-1,2-1.6,4.3-1.6,6.7c0,2.8,0.7,5.4,2.1,7.6c0.5-2.7,1.4-5.2,2.6-7.5
	c-0.4-0.5-0.6-1.2-0.6-1.9c0-0.4,0.1-0.9,0.3-1.3C7.4,19.9,6.4,18.7,5.7,17.4 M17.1,17.7C16,18.6,15,19.6,14,20.6
	c0.3,0.5,0.5,1,0.5,1.7c0,0.3,0,0.6-0.1,1c2.8,1.9,6,3.1,9.4,3.6c0.2-0.4,0.5-0.8,0.8-1c-0.9-2.9-2.4-5.5-4.3-7.8
	c-0.4,0.1-0.8,0.3-1.2,0.3C18.3,18.3,17.7,18.1,17.1,17.7 M12.9,25c-0.5,0.3-1,0.5-1.6,0.5c-0.2,0-0.4,0-0.6-0.1
	c-1.4,2.7-2.3,5.7-2.6,8.8c1.4,1.5,3.1,2.7,5.1,3.6c2.4-3.7,5.8-6.8,9.8-8.8C19.3,28.4,15.9,27,12.9,25 M33.1,28.6
	c-1.2,0.3-2.3,0.5-3.5,0.6c-0.3,0.9-0.9,1.6-1.7,1.9c0,0.6,0.1,1.2,0.1,1.8c0,1.1-0.1,2.1-0.2,3.2C30.2,34.3,32.1,31.7,33.1,28.6
	 M24.6,30.7c-3.8,1.8-6.9,4.5-9.3,7.8c1.2,0.3,2.4,0.4,3.6,0.4c2.2,0,4.4-0.5,6.3-1.4c0.3-1.5,0.5-3,0.5-4.6c0-0.6,0-1.2-0.1-1.7
	C25.2,31.1,24.9,31,24.6,30.7"/>
</svg>
